<svg width="12" height="12" viewBox="0 0 12 12" fill="none" xmlns="http://www.w3.org/2000/svg">
<path d="M5.65765 11.3561C8.77723 11.3561 11.3152 8.81819 11.3152 5.69861C11.3152 2.57903 8.77723 0.0410767 5.65765 0.0410767C2.53807 0.0410767 0.000117302 2.57903 0.000117302 5.69861C0.000117302 8.81819 2.53807 11.3561 5.65765 11.3561ZM5.65765 0.314828C8.62631 0.314828 11.0414 2.72996 11.0414 5.69861C11.0414 8.66726 8.62631 11.0824 5.65765 11.0824C2.689 11.0824 0.273869 8.66726 0.273869 5.69861C0.273869 2.72996 2.689 0.314828 5.65765 0.314828Z" fill="#219653"/>
<path d="M2.81738 8.5459C2.85142 8.5459 2.88536 8.53331 2.91192 8.50803L8.5919 3.0872C8.64656 3.03501 8.64866 2.94841 8.59637 2.89366C8.54418 2.839 8.45758 2.83699 8.40283 2.88919L2.72285 8.30993C2.66819 8.36212 2.66609 8.44872 2.71838 8.50347C2.7452 8.53167 2.78125 8.5459 2.81738 8.5459Z" fill="#219653"/>
<path d="M5.65878 9.13717C5.73443 9.13717 5.79565 9.07585 5.79565 9.00029L5.79273 2.39695C5.79273 2.32139 5.73141 2.26007 5.65586 2.26007C5.58021 2.26007 5.51898 2.32139 5.51898 2.39695L5.5219 9.00029C5.52199 9.07585 5.58322 9.13717 5.65878 9.13717Z" fill="#219653"/>
<path d="M2.19538 5.83679L9.11947 5.83405C9.19512 5.83405 9.25635 5.77273 9.25635 5.69718C9.25635 5.62162 9.19503 5.5603 9.11947 5.5603L2.19538 5.56304C2.11973 5.56304 2.0585 5.62436 2.0585 5.69992C2.0585 5.77547 2.11982 5.83679 2.19538 5.83679Z" fill="#219653"/>
<path d="M7.10888 4.44962C7.11052 4.44962 7.11207 4.44962 7.11362 4.44953L8.80586 4.3904C8.88142 4.38775 8.94055 4.32433 8.9379 4.24887C8.93526 4.17331 8.87147 4.11528 8.79637 4.11683L7.25679 4.17057L7.36474 2.72462C7.3704 2.64925 7.31383 2.58354 7.23845 2.57798C7.16244 2.57132 7.09738 2.6289 7.09181 2.70427L6.97246 4.30261C6.96954 4.3414 6.98332 4.37963 7.01023 4.40764C7.03597 4.43438 7.07174 4.44962 7.10888 4.44962Z" fill="#219653"/>
<path d="M4.11286 8.86137C4.18605 8.86137 4.24673 8.80351 4.24956 8.72978L4.31143 7.11583C4.31289 7.07705 4.29783 7.03946 4.27 7.01236C4.24217 6.98525 4.20421 6.97102 4.16543 6.97403L2.48952 7.08782C2.41405 7.09293 2.35711 7.15817 2.36222 7.23364C2.36733 7.3091 2.43267 7.3655 2.50804 7.36093L4.03211 7.25745L3.97599 8.7192C3.97307 8.79475 4.03202 8.85835 4.10748 8.86127C4.10931 8.86127 4.11104 8.86137 4.11286 8.86137Z" fill="#219653"/>
<path d="M8.46981 8.55743C8.50594 8.55743 8.54199 8.54319 8.56891 8.515C8.62101 8.46025 8.619 8.37365 8.56425 8.32145L2.88017 2.90464C2.82551 2.85244 2.73891 2.85454 2.68662 2.90929C2.63452 2.96404 2.63653 3.05064 2.69128 3.10284L8.37536 8.51965C8.40183 8.54493 8.43586 8.55743 8.46981 8.55743Z" fill="#219653"/>
<path d="M4.17464 4.46514C4.21014 4.46514 4.24436 4.45136 4.27 4.42645C4.29783 4.39944 4.31289 4.36185 4.31143 4.32298L4.24947 2.70912C4.24655 2.63356 4.18203 2.57562 4.10739 2.57763C4.03183 2.58055 3.97298 2.64415 3.9759 2.7197L4.03202 4.18145L2.50795 4.07797C2.43276 4.07277 2.36724 4.1298 2.36213 4.20526C2.35702 4.28073 2.41396 4.34597 2.48943 4.35108L4.16543 4.46478C4.16853 4.46505 4.17163 4.46514 4.17464 4.46514Z" fill="#219653"/>
<path d="M7.22765 8.86141C7.23112 8.86141 7.2345 8.86131 7.23796 8.86104C7.31334 8.85538 7.36991 8.78977 7.36426 8.7144L7.25631 7.26844L8.79589 7.32219C8.87162 7.32475 8.93477 7.26571 8.93741 7.19015C8.94006 7.1146 8.88093 7.05127 8.80538 7.04862L7.11313 6.98958C7.07362 6.98894 7.03657 7.00354 7.00966 7.03147C6.98274 7.05957 6.96896 7.09772 6.97188 7.1365L7.09123 8.73484C7.09662 8.80666 7.15666 8.86141 7.22765 8.86141Z" fill="#219653"/>
</svg>
