<svg width="14" height="14" viewBox="0 0 14 14" fill="none" xmlns="http://www.w3.org/2000/svg">
<path d="M7 14C10.8598 14 14 10.8598 14 7C14 3.14018 10.8598 0 7 0C3.14018 0 0 3.14018 0 7C0 10.8598 3.14018 14 7 14ZM7 0.33871C10.6731 0.33871 13.6613 3.32692 13.6613 7C13.6613 10.6731 10.6731 13.6613 7 13.6613C3.32692 13.6613 0.33871 10.6731 0.33871 7C0.33871 3.32692 3.32692 0.33871 7 0.33871Z" fill="#4F4F4F"/>
<path d="M3.48593 10.5229C3.52804 10.5229 3.57004 10.5073 3.6029 10.4761L10.6307 3.76893C10.6983 3.70435 10.7009 3.59721 10.6362 3.52946C10.5716 3.46183 10.4645 3.45935 10.3967 3.52393L3.36896 10.2309C3.30133 10.2955 3.29874 10.4027 3.36343 10.4704C3.39662 10.5053 3.44122 10.5229 3.48593 10.5229Z" fill="#4F4F4F"/>
<path d="M7.00154 11.2545C7.09514 11.2545 7.1709 11.1787 7.1709 11.0852L7.16729 2.91493C7.16729 2.82145 7.09141 2.74557 6.99793 2.74557C6.90433 2.74557 6.82858 2.82145 6.82858 2.91493L6.83219 11.0852C6.8323 11.1787 6.90806 11.2545 7.00154 11.2545Z" fill="#4F4F4F"/>
<path d="M2.71618 7.17102L11.2833 7.16764C11.3769 7.16764 11.4526 7.09176 11.4526 6.99828C11.4526 6.9048 11.3768 6.82893 11.2833 6.82893L2.71618 6.83231C2.62259 6.83231 2.54683 6.90818 2.54683 7.00167C2.54683 7.09515 2.6227 7.17102 2.71618 7.17102Z" fill="#4F4F4F"/>
<path d="M8.79546 5.45467C8.79749 5.45467 8.79941 5.45467 8.80133 5.45456L10.8951 5.3814C10.9886 5.37813 11.0618 5.29966 11.0585 5.20629C11.0552 5.1128 10.9763 5.041 10.8834 5.04292L8.97847 5.10942L9.11204 3.32035C9.11904 3.22709 9.04904 3.1458 8.95578 3.13892C8.86173 3.13067 8.78123 3.20192 8.77434 3.29517L8.62667 5.27279C8.62305 5.32077 8.6401 5.36808 8.67341 5.40274C8.70525 5.43582 8.7495 5.45467 8.79546 5.45467Z" fill="#4F4F4F"/>
<path d="M5.08867 10.9133C5.17922 10.9133 5.2543 10.8417 5.2578 10.7505L5.33435 8.75359C5.33616 8.7056 5.31753 8.65909 5.28309 8.62556C5.24866 8.59202 5.20169 8.57441 5.15371 8.57814L3.08013 8.71893C2.98676 8.72525 2.9163 8.80597 2.92263 8.89935C2.92895 8.99272 3.00979 9.06249 3.10305 9.05685L4.98876 8.92881L4.91932 10.7374C4.91571 10.8309 4.98864 10.9096 5.08201 10.9132C5.08427 10.9132 5.08642 10.9133 5.08867 10.9133Z" fill="#4F4F4F"/>
<path d="M10.4796 10.5372C10.5243 10.5372 10.5689 10.5196 10.6022 10.4847C10.6666 10.417 10.6642 10.3098 10.5964 10.2453L3.56357 3.54311C3.49594 3.47853 3.38879 3.48112 3.3241 3.54886C3.25963 3.61661 3.26211 3.72375 3.32986 3.78833L10.3627 10.4905C10.3955 10.5218 10.4376 10.5372 10.4796 10.5372Z" fill="#4F4F4F"/>
<path d="M5.16511 5.47391C5.20903 5.47391 5.25137 5.45686 5.28309 5.42604C5.31753 5.39262 5.33616 5.3461 5.33435 5.29801L5.25769 3.3012C5.25408 3.20772 5.17426 3.13602 5.0819 3.13851C4.98842 3.14212 4.91559 3.22081 4.91921 3.3143L4.98864 5.12289L3.10293 4.99486C3.0099 4.98843 2.92884 5.05899 2.92251 5.15236C2.91619 5.24573 2.98664 5.32646 3.08001 5.33278L5.15371 5.47346C5.15755 5.4738 5.16138 5.47391 5.16511 5.47391Z" fill="#4F4F4F"/>
<path d="M8.94253 10.9133C8.94682 10.9133 8.951 10.9132 8.95529 10.9129C9.04855 10.9059 9.11855 10.8247 9.11155 10.7314L8.97798 8.94237L10.8829 9.00887C10.9766 9.01203 11.0547 8.93898 11.058 8.8455C11.0613 8.75201 10.9881 8.67366 10.8946 8.67039L8.80084 8.59734C8.75195 8.59655 8.70611 8.61461 8.67281 8.64916C8.6395 8.68393 8.62245 8.73113 8.62606 8.77911L8.77374 10.7567C8.7804 10.8456 8.85469 10.9133 8.94253 10.9133Z" fill="#4F4F4F"/>
</svg>
