<svg width="14" height="14" viewBox="0 0 14 14" fill="none" xmlns="http://www.w3.org/2000/svg">
<path d="M11.2796 13.0134L10.9956 13.2976C10.8975 13.3958 10.7607 13.4449 10.6275 13.4309C10.4943 13.4169 10.3645 13.3397 10.2909 13.2274L7.46855 9.00997L4.93369 11.5467L5.69099 13.1186C5.77163 13.2941 5.74008 13.5046 5.59984 13.6449L5.37896 13.866C5.28429 13.9607 5.15107 14.0063 5.02134 13.9993C4.89162 13.9923 4.7654 13.9221 4.68476 13.8133L2.76346 11.2345L0.186522 9.31171C0.0813411 9.23101 0.0147264 9.10821 0.000702248 8.97488C-0.00630982 8.84155 0.0392687 8.70822 0.133932 8.617L0.354812 8.39595C0.491547 8.25911 0.701909 8.22052 0.880717 8.30473L2.45142 9.0626L4.98628 6.52583L0.779041 3.70486C0.663342 3.62767 0.58621 3.50487 0.575691 3.36803C0.565173 3.23119 0.610752 3.09786 0.708921 2.99962L0.99291 2.71542C1.11913 2.5891 1.30845 2.547 1.47324 2.61016L6.95317 4.56449L10.6801 0.834769C10.6871 0.827752 10.6941 0.820735 10.7046 0.810209C11.6057 -0.0915193 12.8994 -0.266953 13.5831 0.417238C14.2668 1.10143 14.0914 2.39262 13.1904 3.29786C13.1834 3.30487 13.1764 3.31189 13.1659 3.32242L13.1588 3.32943L9.43544 7.05213L11.3883 12.5362C11.4444 12.7011 11.4023 12.8906 11.2796 13.0134ZM10.6941 12.7397L10.7853 12.6485L8.8324 7.16441C8.7728 6.99599 8.81136 6.81003 8.93758 6.68372L12.7592 2.85927C13.4113 2.20666 13.5936 1.28037 13.1518 0.838278C12.7101 0.396186 11.788 0.575128 11.1324 1.23125L11.1043 1.25932L7.31779 5.0557C7.19158 5.18201 7.00225 5.22411 6.83747 5.16096L1.35754 3.20663L1.26638 3.29786L5.47362 6.11882C5.58932 6.19602 5.66645 6.31882 5.67697 6.45566C5.68749 6.5925 5.64191 6.72582 5.54374 6.82407L2.81254 9.55732C2.67581 9.69416 2.46544 9.73275 2.28664 9.64855L0.715933 8.89067L0.687885 8.91874L3.14912 10.7538C3.18418 10.7818 3.21573 10.8134 3.24378 10.8485L5.07744 13.3116L5.10549 13.2835L4.34818 11.7116C4.26754 11.5362 4.2991 11.3257 4.43934 11.1853L7.17054 8.45209C7.26871 8.35385 7.40544 8.30473 7.53867 8.31876C7.6719 8.3328 7.80163 8.40999 7.87525 8.52226L10.6941 12.7397Z" fill="#333333"/>
</svg>
