<svg width="17" height="15" viewBox="0 0 17 15" fill="none" xmlns="http://www.w3.org/2000/svg">
<path fill-rule="evenodd" clip-rule="evenodd" d="M2.83821 10.5667C2.49131 10.4758 2.17189 10.3209 1.89005 10.1066C1.61733 9.89933 1.39129 9.64649 1.21629 9.35503C1.04163 9.06231 0.928945 8.74584 0.879757 8.41438C0.828436 8.0704 0.849952 7.72627 0.942098 7.39004L2.93794 0.107002C2.95919 0.0294217 3.03993 -0.0156274 3.11863 0.00499571L7.99608 1.28263C8.07476 1.30324 8.12159 1.38194 8.1004 1.45931L6.10456 8.74237C6.01242 9.07861 5.85443 9.38697 5.63474 9.65997C5.42262 9.92297 5.16278 10.1418 4.86243 10.3094C4.5621 10.477 4.23663 10.5854 3.89491 10.6316C3.54091 10.6796 3.18488 10.6575 2.8382 10.5667L2.83821 10.5667ZM2.47228 3.15349C3.17757 3.38499 2.69304 3.91847 4.86425 3.84328C5.597 3.8179 6.67068 3.564 6.94576 4.32552L7.70183 1.56655L3.22826 0.394826L2.47228 3.15349L2.47228 3.15349Z" fill="#4F4F4F"/>
<path fill-rule="evenodd" clip-rule="evenodd" d="M1.80103 14.3516C1.6269 14.306 1.52417 14.1309 1.57081 13.9608L3.00207 8.73793C3.04863 8.56806 3.2274 8.46713 3.40115 8.51265C3.57517 8.55824 3.67884 8.73276 3.63218 8.90302L2.20092 14.1259C2.15436 14.2958 1.97478 14.3972 1.80103 14.3516L1.80103 14.3516Z" fill="#4F4F4F"/>
<path fill-rule="evenodd" clip-rule="evenodd" d="M3.34355 14.7891L0.241575 13.9764C0.0678289 13.9309 -0.0353864 13.7561 0.0111727 13.5863C0.0578315 13.416 0.236177 13.3154 0.410221 13.361L3.51226 14.1735C3.68617 14.219 3.78868 14.393 3.74286 14.563C3.69688 14.7335 3.51776 14.8348 3.34355 14.7892V14.7891Z" fill="#4F4F4F"/>
<path fill-rule="evenodd" clip-rule="evenodd" d="M13.3728 10.5667C13.7197 10.4758 14.0391 10.3209 14.3209 10.1066C14.5936 9.89933 14.8197 9.64649 14.9947 9.35503C15.1693 9.06231 15.282 8.74584 15.3312 8.41438C15.3825 8.0704 15.361 7.72627 15.2689 7.39004L13.273 0.107002C13.2518 0.0294217 13.171 -0.0156274 13.0923 0.00499571L8.21489 1.28263C8.13621 1.30324 8.08937 1.38194 8.11057 1.45931L10.1064 8.74237C10.1985 9.07861 10.3565 9.38697 10.5762 9.65997C10.7883 9.92297 11.0482 10.1418 11.3485 10.3094C11.6489 10.477 11.9743 10.5854 12.3161 10.6316C12.6701 10.6796 13.0261 10.6575 13.3728 10.5667L13.3728 10.5667ZM13.7387 3.15349C13.0334 3.38499 13.5179 3.91847 11.3467 3.84328C10.614 3.8179 9.54029 3.564 9.26521 4.32552L8.50914 1.56655L12.9827 0.394826L13.7387 3.15349L13.7387 3.15349Z" fill="#4F4F4F"/>
<path fill-rule="evenodd" clip-rule="evenodd" d="M14.4097 14.3516C14.5838 14.306 14.6866 14.131 14.6399 13.9608L13.2087 8.73793C13.1621 8.56806 12.9833 8.46713 12.8096 8.51265C12.6356 8.55824 12.5319 8.73277 12.5786 8.90302L14.0098 14.1259C14.0564 14.2958 14.236 14.3972 14.4097 14.3516V14.3516Z" fill="#4F4F4F"/>
<path fill-rule="evenodd" clip-rule="evenodd" d="M12.8677 14.7892L15.9697 13.9765C16.1435 13.9309 16.2467 13.7561 16.2001 13.5863C16.1535 13.416 15.9751 13.3154 15.8011 13.361L12.699 14.1735C12.5251 14.219 12.4226 14.393 12.4684 14.563C12.5144 14.7335 12.6935 14.8348 12.8677 14.7892V14.7892Z" fill="#4F4F4F"/>
</svg>
