<svg width="15" height="15" viewBox="0 0 15 15" fill="none" xmlns="http://www.w3.org/2000/svg">
<path d="M7.6433 8.80955C5.21477 8.80955 3.23853 6.8333 3.23853 4.40478C3.23853 1.97625 5.21477 0 7.6433 0C10.0718 0 12.0481 1.97625 12.0481 4.40478C12.0481 6.8333 10.0718 8.80955 7.6433 8.80955ZM7.6433 1.25851C5.90855 1.25851 4.49703 2.67003 4.49703 4.40478C4.49703 6.13952 5.90855 7.55104 7.6433 7.55104C9.37805 7.55104 10.7896 6.13952 10.7896 4.40478C10.7896 2.67003 9.37805 1.25851 7.6433 1.25851Z" fill="#4F4F4F"/>
<path d="M14.565 14.4729H13.3065C13.3065 11.35 10.7661 8.80965 7.64322 8.80965C4.52031 8.80965 1.97994 11.35 1.97994 14.4729H0.721436C0.721436 10.6562 3.82653 7.55115 7.64322 7.55115C11.4599 7.55115 14.565 10.6562 14.565 14.4729Z" fill="#4F4F4F"/>
</svg>
