<svg width="20" height="12" viewBox="0 0 20 12" fill="none" xmlns="http://www.w3.org/2000/svg">
<path d="M7.602 6.464H4.648V9.446H3.402V6.464H0.462V5.302H3.402V2.306H4.648V5.302H7.602V6.464ZM10.3064 8.228C10.3904 8.816 10.5957 9.26867 10.9224 9.586C11.2491 9.90333 11.6971 10.062 12.2664 10.062C13.0504 10.062 13.6431 9.75867 14.0444 9.152C14.4457 8.54533 14.6464 7.584 14.6464 6.268C14.6464 6.016 14.6417 5.82467 14.6324 5.694C14.5017 6.254 14.1844 6.702 13.6804 7.038C13.1764 7.374 12.5837 7.542 11.9024 7.542C10.9224 7.542 10.1524 7.248 9.59241 6.66C9.03241 6.072 8.75241 5.25067 8.75241 4.196C8.75241 3.58 8.87374 3.02 9.11641 2.516C9.35907 2.012 9.72774 1.61533 10.2224 1.326C10.7264 1.02733 11.3471 0.877999 12.0844 0.877999C13.5031 0.877999 14.4737 1.31667 14.9964 2.194C15.5284 3.062 15.7944 4.25667 15.7944 5.778C15.7944 7.514 15.5237 8.83933 14.9824 9.754C14.4411 10.6593 13.5357 11.112 12.2664 11.112C11.3237 11.112 10.5817 10.846 10.0404 10.314C9.50841 9.77267 9.19574 9.07733 9.10241 8.228H10.3064ZM14.5064 4.392C14.5064 3.72 14.3057 3.15067 13.9044 2.684C13.5124 2.21733 12.9197 1.984 12.1264 1.984C11.4731 1.984 10.9504 2.18 10.5584 2.572C10.1664 2.964 9.97041 3.51 9.97041 4.21C9.97041 4.95667 10.1664 5.53067 10.5584 5.932C10.9504 6.33333 11.4871 6.534 12.1684 6.534C12.5604 6.534 12.9337 6.45467 13.2884 6.296C13.6524 6.13733 13.9464 5.89467 14.1704 5.568C14.3944 5.24133 14.5064 4.84933 14.5064 4.392ZM16.766 2.32V1.13H19.594V11H18.25V2.32H16.766Z" fill="#333333"/>
</svg>
