<svg width="17" height="15" viewBox="0 0 17 15" fill="none" xmlns="http://www.w3.org/2000/svg">
<path d="M15.7452 12.9415C14.886 12.3734 13.3711 12.4525 12.1638 12.6431C13.5628 11.4348 14.4427 9.74775 14.625 7.92419C14.8072 6.10063 14.2782 4.27708 13.1452 2.82342C12.0123 1.36976 10.3601 0.394839 8.52399 0.0963962C6.68784 -0.202047 4.80514 0.198337 3.25777 1.21634C1.7104 2.23434 0.614214 3.79373 0.191561 5.57822C-0.231092 7.3627 0.0514323 9.23867 0.981828 10.8256C1.91222 12.4125 3.42083 13.5916 5.20164 14.1237C6.98246 14.6558 8.90214 14.501 10.5713 13.6908C10.5741 13.69 10.5769 13.6909 10.5796 13.6901C11.5575 13.4074 14.3213 12.8244 15.3572 13.5101C15.4645 13.5767 15.5542 13.6672 15.6191 13.7744C15.6841 13.8816 15.7223 14.0024 15.7307 14.1269C15.7395 14.2112 15.7796 14.2893 15.8435 14.3462C15.9073 14.403 15.9903 14.4345 16.0764 14.4346C16.0881 14.4346 16.1 14.4339 16.1119 14.4329C16.1573 14.4284 16.2014 14.415 16.2416 14.3937C16.2819 14.3723 16.3174 14.3434 16.3463 14.3085C16.3752 14.2736 16.3968 14.2335 16.4099 14.1904C16.423 14.1473 16.4273 14.1021 16.4227 14.0573C16.403 13.833 16.3318 13.6159 16.2144 13.4226C16.097 13.2293 15.9366 13.0648 15.7452 12.9415ZM0.753886 7.24737C0.753904 5.96137 1.14122 4.70426 1.86686 3.63499C2.59249 2.56573 3.62386 1.73235 4.83054 1.24023C6.03721 0.748105 7.365 0.619349 8.646 0.87024C9.92699 1.12113 11.1037 1.7404 12.0272 2.64974C12.9507 3.55908 13.5797 4.71765 13.8345 5.97893C14.0893 7.24022 13.9585 8.54758 13.4587 9.73569C12.9589 10.9238 12.1125 11.9393 11.0265 12.6538C9.94056 13.3682 8.66381 13.7496 7.35771 13.7496C5.60688 13.7477 3.92832 13.062 2.69029 11.843C1.45226 10.624 0.755866 8.97127 0.753886 7.24737Z" fill="#333333"/>
<path d="M7.35752 5.12613C6.93142 5.12613 6.51489 5.25054 6.1606 5.48363C5.80631 5.71672 5.53018 6.04801 5.36712 6.43562C5.20406 6.82323 5.16139 7.24974 5.24452 7.66123C5.32765 8.07271 5.53284 8.45068 5.83414 8.74734C6.13544 9.044 6.51931 9.24603 6.93723 9.32788C7.35514 9.40973 7.78832 9.36772 8.18198 9.20717C8.57565 9.04662 8.91212 8.77473 9.14885 8.42589C9.38557 8.07705 9.51193 7.66693 9.51193 7.24738C9.51127 6.68499 9.28408 6.14581 8.88019 5.74814C8.4763 5.35047 7.9287 5.12677 7.35752 5.12613ZM7.35752 8.68363C7.06902 8.68363 6.78699 8.59939 6.54712 8.44157C6.30724 8.28376 6.12027 8.05944 6.00987 7.797C5.89947 7.53456 5.87058 7.24578 5.92687 6.96718C5.98315 6.68858 6.12208 6.43266 6.32608 6.2318C6.53008 6.03094 6.79 5.89415 7.07295 5.83874C7.35591 5.78332 7.6492 5.81176 7.91574 5.92047C8.18228 6.02917 8.4101 6.21326 8.57038 6.44945C8.73066 6.68564 8.81621 6.96332 8.81621 7.24738C8.81577 7.62817 8.66194 7.99323 8.38848 8.26248C8.11502 8.53174 7.74425 8.6832 7.35752 8.68363Z" fill="#333333"/>
<path d="M7.3575 4.12436C7.56911 4.12436 7.77597 4.06258 7.95192 3.94682C8.12787 3.83106 8.265 3.66652 8.34597 3.47402C8.42694 3.28152 8.44812 3.0697 8.40683 2.86535C8.36553 2.661 8.26361 2.47329 8.11397 2.32597C7.96432 2.17865 7.77367 2.07834 7.56612 2.03771C7.35857 1.99708 7.14344 2.01797 6.94795 2.09772C6.75245 2.17748 6.58537 2.31253 6.46783 2.48579C6.35028 2.65905 6.28756 2.86274 6.2876 3.07109C6.28797 3.35036 6.40082 3.61807 6.60138 3.81552C6.80195 4.01298 7.07387 4.12404 7.3575 4.12436ZM7.3575 2.7025C7.4315 2.7025 7.50383 2.7241 7.56537 2.76458C7.6269 2.80506 7.67486 2.86259 7.70318 2.9299C7.73151 2.99721 7.73893 3.07128 7.7245 3.14275C7.71008 3.21421 7.67446 3.27986 7.62214 3.33139C7.56983 3.38292 7.50317 3.41802 7.4306 3.43226C7.35803 3.44649 7.28279 3.43922 7.21442 3.41136C7.14604 3.3835 7.08759 3.3363 7.04645 3.27574C7.00532 3.21517 6.98334 3.14395 6.98331 3.07109C6.98337 2.97338 7.02281 2.87969 7.09297 2.81058C7.16312 2.74148 7.25826 2.7026 7.3575 2.7025Z" fill="#333333"/>
<path d="M7.3575 10.3704C7.14589 10.3704 6.93903 10.4322 6.76308 10.5479C6.58713 10.6637 6.45 10.8282 6.36902 11.0207C6.28805 11.2132 6.26687 11.4251 6.30817 11.6294C6.34946 11.8338 6.45138 12.0215 6.60102 12.1688C6.75067 12.3161 6.94132 12.4164 7.14887 12.457C7.35642 12.4977 7.57155 12.4768 7.76705 12.397C7.96254 12.3173 8.12963 12.1822 8.24717 12.009C8.36471 11.8357 8.42743 11.632 8.4274 11.4237C8.42702 11.1444 8.31418 10.8767 8.11361 10.6792C7.91304 10.4818 7.64113 10.3707 7.3575 10.3704ZM7.3575 11.7923C7.2835 11.7923 7.21116 11.7707 7.14963 11.7302C7.0881 11.6897 7.04014 11.6322 7.01181 11.5649C6.98348 11.4975 6.97606 11.4235 6.99049 11.352C7.00491 11.2805 7.04053 11.2149 7.09285 11.1634C7.14516 11.1118 7.21182 11.0767 7.28439 11.0625C7.35697 11.0483 7.4322 11.0555 7.50057 11.0834C7.56895 11.1113 7.6274 11.1585 7.66854 11.219C7.70968 11.2796 7.73165 11.3508 7.73168 11.4237C7.73162 11.5214 7.69218 11.6151 7.62203 11.6842C7.55188 11.7533 7.45674 11.7922 7.3575 11.7923Z" fill="#333333"/>
<path d="M3.11613 6.19376C2.90449 6.19373 2.69759 6.2555 2.52159 6.37125C2.3456 6.487 2.20842 6.65154 2.1274 6.84405C2.04638 7.03657 2.02517 7.24842 2.06644 7.45281C2.10771 7.6572 2.20961 7.84495 2.35925 7.99232C2.5089 8.13968 2.69957 8.24005 2.90714 8.28071C3.11472 8.32138 3.32988 8.30053 3.52542 8.22079C3.72096 8.14105 3.88809 8.006 4.00568 7.83274C4.12327 7.65947 4.18603 7.45576 4.18603 7.24737C4.18573 6.96805 4.07292 6.70026 3.87234 6.50274C3.67177 6.30522 3.39981 6.19411 3.11613 6.19376ZM3.11613 7.61596C3.04209 7.61599 2.96969 7.5944 2.90811 7.55392C2.84652 7.51344 2.79852 7.45589 2.77016 7.38854C2.7418 7.32119 2.73436 7.24707 2.74878 7.17556C2.76321 7.10405 2.79885 7.03836 2.8512 6.98679C2.90354 6.93523 2.97025 6.9001 3.04287 6.88587C3.11549 6.87163 3.19077 6.87892 3.25918 6.90681C3.3276 6.93471 3.38607 6.98195 3.42722 7.04257C3.46836 7.10319 3.49032 7.17446 3.49032 7.24737C3.49025 7.34508 3.45082 7.43877 3.38066 7.50787C3.31051 7.57698 3.21537 7.61585 3.11613 7.61596Z" fill="#333333"/>
<path d="M12.6693 7.24736C12.6692 7.039 12.6065 6.83532 12.4889 6.66209C12.3713 6.48885 12.2042 6.35383 12.0087 6.2741C11.8132 6.19437 11.5981 6.17351 11.3905 6.21417C11.183 6.25482 10.9923 6.35516 10.8427 6.50249C10.6931 6.64982 10.5911 6.83753 10.5499 7.04189C10.5086 7.24624 10.5298 7.45806 10.6107 7.65057C10.6917 7.84307 10.8288 8.00761 11.0048 8.12338C11.1807 8.23915 11.3876 8.30095 11.5992 8.30096C11.8829 8.30066 12.1549 8.18956 12.3555 7.99203C12.5561 7.79451 12.669 7.5267 12.6693 7.24736ZM11.5992 7.61595C11.5252 7.61595 11.4528 7.59433 11.3912 7.55383C11.3297 7.51333 11.2817 7.45576 11.2533 7.38841C11.225 7.32106 11.2176 7.24695 11.232 7.17545C11.2465 7.10395 11.2821 7.03827 11.3345 6.98672C11.3868 6.93517 11.4535 6.90007 11.5262 6.88585C11.5988 6.87163 11.6741 6.87893 11.7425 6.90682C11.8109 6.93472 11.8693 6.98197 11.9105 7.04258C11.9516 7.1032 11.9735 7.17446 11.9735 7.24736C11.9735 7.3451 11.934 7.43882 11.8638 7.50793C11.7936 7.57704 11.6985 7.61589 11.5992 7.61595Z" fill="#333333"/>
</svg>
