<svg width="29" height="26" viewBox="0 0 29 26" fill="none" xmlns="http://www.w3.org/2000/svg">
<path d="M23.8273 2.50964H23.1777V4.28119H23.8273C24.3292 4.28119 24.7131 3.89736 24.7131 3.39542C24.7131 2.89348 24.3292 2.50964 23.8273 2.50964Z" fill="#333333"/>
<path d="M20.0185 13.08H18.6308L17.745 10.3046C17.3021 8.88738 15.9735 7.91302 14.4677 7.91302H6.61379C5.10797 7.91302 3.80883 8.85785 3.33642 10.3046L2.45064 13.08H1.09246C0.501939 13.08 0 13.5525 0 14.1725V14.7925C0 15.3831 0.472413 15.885 1.09246 15.885H1.47629C1.26961 16.8889 1.15151 17.8928 1.15151 18.9262V24.1227C1.15151 24.7132 1.62392 25.2152 2.24396 25.2152H4.04504C4.63556 25.2152 5.13749 24.7427 5.13749 24.1227V22.4397H16.0325V24.1227C16.0325 24.7132 16.5049 25.2152 17.125 25.2152H18.9261C19.5166 25.2152 20.0185 24.7427 20.0185 24.1227V18.8966C20.0185 17.8632 19.9004 16.8594 19.6937 15.8555H20.0776C20.6681 15.8555 21.17 15.3831 21.17 14.763V14.143C21.111 13.582 20.609 13.08 20.0185 13.08ZM4.36982 14.202L5.40323 10.9837C5.58038 10.4522 6.05279 10.0979 6.61379 10.0979H14.4677C15.0286 10.0979 15.5011 10.4522 15.6782 10.9837L16.7116 14.202C16.7707 14.3497 16.6526 14.4973 16.5049 14.4973H4.5765C4.42887 14.4973 4.31077 14.3497 4.36982 14.202ZM6.64331 19.4872H4.4584C4.10409 19.4872 3.77931 19.1919 3.77931 18.8081V17.7747C3.77931 17.3613 4.13362 17.066 4.54698 17.1251L6.58426 17.4499C6.84999 17.4794 7.05667 17.6861 7.11572 17.9813L7.26335 18.69C7.38146 19.1033 7.0862 19.4872 6.64331 19.4872ZM17.3021 18.8376C17.3021 19.1919 17.0069 19.5167 16.623 19.5167H14.4381C14.0248 19.5167 13.7 19.1328 13.7886 18.7195L13.9362 18.0109C13.9952 17.7451 14.2019 17.5384 14.4677 17.4794L16.5049 17.1546C16.9183 17.0956 17.2726 17.3908 17.2726 17.8042V18.8376H17.3021Z" fill="#333333"/>
<path d="M27.3411 0H20.5797C20.1959 0 19.8711 0.324784 19.8711 0.70862V7.47004C19.8711 7.85387 20.1959 8.17866 20.5797 8.17866H23.1189V24.8607C23.1189 25.0674 23.2666 25.2151 23.4732 25.2151H24.4771C24.6838 25.2151 24.8314 25.0674 24.8314 24.8607V8.17866H27.3116C27.6954 8.17866 28.0202 7.85387 28.0202 7.47004V0.70862C28.0497 0.324784 27.725 0 27.3411 0ZM23.8276 5.22607H23.178V6.46616C23.178 6.55474 23.1189 6.61379 23.0304 6.61379H22.3513C22.2627 6.61379 22.2036 6.55474 22.2036 6.46616V1.80108C22.2036 1.65345 22.3217 1.53534 22.4694 1.53534H23.7685C24.7724 1.53534 25.6286 2.33254 25.6582 3.33642C25.7172 4.39935 24.861 5.22607 23.8276 5.22607Z" fill="#333333"/>
</svg>
