<svg width="27" height="28" viewBox="0 0 27 28" fill="none" xmlns="http://www.w3.org/2000/svg">
<path d="M3.83837 3.66297C1.36316 6.02274 0 9.19257 0 12.5737C0 15.9197 1.36316 19.0895 3.8025 21.4845L4.80693 20.4983C2.6187 18.3851 1.43491 15.5675 1.43491 12.609C1.43491 9.61522 2.65458 6.83281 4.84281 4.71958C9.36276 0.352251 16.7525 0.387471 21.2366 4.7548C23.4248 6.86803 24.6086 9.68566 24.6086 12.6442C24.6086 15.6379 23.389 18.4203 21.2007 20.5335L22.2052 21.5549C24.6804 19.1952 26.0435 16.0253 26.0435 12.6442C26.0435 9.29824 24.6804 6.1284 22.241 3.73341C17.183 -1.23267 8.93229 -1.23267 3.83837 3.66297Z" fill="#333333"/>
<path d="M22.7789 12.5739C22.7789 10.0381 21.7744 7.6783 19.9449 5.91728C16.1424 2.21913 9.93647 2.21913 6.13397 5.88206C4.26859 7.64308 3.26416 10.0381 3.26416 12.5387C3.26416 15.0746 4.26859 17.4343 6.0981 19.1954L7.10253 18.2092C5.52414 16.6947 4.66319 14.6872 4.66319 12.5387C4.66319 10.3903 5.52414 8.3827 7.10253 6.86823C10.3669 3.73361 15.6402 3.73361 18.8688 6.90345C20.4472 8.41792 21.3081 10.4255 21.3081 12.5739C21.3081 14.7224 20.4472 16.7299 18.8688 18.2444L19.8732 19.2658C21.7386 17.4696 22.7789 15.1098 22.7789 12.5739Z" fill="#333333"/>
<path d="M17.3266 16.7651C18.4746 15.6381 19.1203 14.1588 19.1203 12.5739C19.1203 10.989 18.4746 9.50972 17.3266 8.38266C14.959 6.09334 11.0489 6.05812 8.68133 8.38266C7.5334 9.50972 6.8877 10.989 6.8877 12.5739C6.8877 14.1588 7.5334 15.6381 8.68133 16.7651L9.68576 15.7789C8.78894 14.9337 8.3226 13.8066 8.3226 12.6091C8.3226 11.4116 8.82482 10.2846 9.68576 9.43928C11.5153 7.67825 14.4927 7.67825 16.3222 9.43928C17.219 10.2846 17.6854 11.4116 17.6854 12.6443C17.6854 13.877 17.1831 14.9689 16.3222 15.8142L17.3266 16.7651Z" fill="#333333"/>
<path d="M15.7124 12.6087C15.7124 11.1647 14.4928 10.0024 13.022 10.0024C11.5512 10.0024 10.3315 11.1647 10.3315 12.6087C10.3315 13.8062 11.1566 14.7924 12.3045 15.1094V26.5912H10.475V28H15.6048V26.5912H13.7394V15.1094C14.8874 14.7924 15.7124 13.771 15.7124 12.6087ZM11.7664 12.6087C11.7664 11.9395 12.3404 11.4112 13.022 11.4112C13.7036 11.4112 14.2775 11.9395 14.2775 12.6087C14.2775 13.2779 13.7036 13.8062 13.022 13.8062C12.3404 13.8062 11.7664 13.2427 11.7664 12.6087Z" fill="#333333"/>
</svg>
