<svg width="31" height="27" viewBox="0 0 31 27" fill="none" xmlns="http://www.w3.org/2000/svg">
<path d="M29.2315 24.0264C27.6364 22.9716 24.824 23.1185 22.5826 23.4724C25.1799 21.2291 26.8135 18.0971 27.1518 14.7116C27.4902 11.3261 26.5081 7.94057 24.4046 5.24179C22.3012 2.54302 19.234 0.733035 15.8251 0.178963C12.4162 -0.375108 8.92093 0.368221 6.04818 2.25818C3.17542 4.14813 1.14031 7.04321 0.355641 10.3562C-0.429031 13.6691 0.0954862 17.152 1.8228 20.0982C3.55012 23.0444 6.3509 25.2334 9.65705 26.2212C12.9632 27.209 16.5272 26.9217 19.6261 25.4174C19.6312 25.4161 19.6364 25.4176 19.6415 25.4162C21.4569 24.8914 26.5881 23.8091 28.5113 25.0821C28.7104 25.2056 28.877 25.3737 28.9975 25.5727C29.1181 25.7717 29.1891 25.996 29.2047 26.2272C29.221 26.3837 29.2955 26.5287 29.4141 26.6342C29.5326 26.7398 29.6867 26.7983 29.8465 26.7984C29.8682 26.7984 29.8903 26.7972 29.9123 26.7953C29.9967 26.7869 30.0786 26.7621 30.1533 26.7225C30.2279 26.6828 30.294 26.6291 30.3475 26.5643C30.4011 26.4996 30.4412 26.4251 30.4656 26.3451C30.4899 26.265 30.498 26.1811 30.4894 26.098C30.4528 25.6814 30.3206 25.2785 30.1027 24.9196C29.8848 24.5608 29.5869 24.2554 29.2315 24.0264ZM1.39962 13.455C1.39965 11.0675 2.11872 8.73364 3.46589 6.74851C4.81307 4.76339 6.72784 3.21617 8.96808 2.30253C11.2083 1.38889 13.6734 1.14985 16.0516 1.61563C18.4298 2.08142 20.6144 3.23112 22.329 4.91935C24.0436 6.60757 25.2112 8.7585 25.6843 11.1001C26.1574 13.4418 25.9146 15.8689 24.9867 18.0747C24.0587 20.2805 22.4873 22.1658 20.4712 23.4922C18.455 24.8187 16.0847 25.5267 13.6599 25.5267C10.4094 25.5231 7.29308 24.2501 4.99463 21.987C2.69618 19.7239 1.4033 16.6555 1.39962 13.455Z" fill="#333333"/>
<path d="M13.6599 9.51682C12.8688 9.51682 12.0955 9.74779 11.4377 10.1805C10.78 10.6133 10.2673 11.2283 9.96461 11.9479C9.66189 12.6676 9.58268 13.4594 9.73701 14.2233C9.89135 14.9873 10.2723 15.689 10.8317 16.2397C11.391 16.7905 12.1037 17.1656 12.8796 17.3175C13.6555 17.4695 14.4597 17.3915 15.1905 17.0934C15.9214 16.7954 16.546 16.2906 16.9855 15.643C17.425 14.9953 17.6596 14.2339 17.6596 13.455C17.6584 12.4109 17.2366 11.4099 16.4868 10.6716C15.7369 9.9333 14.7203 9.51801 13.6599 9.51682ZM13.6599 16.1215C13.1243 16.1215 12.6007 15.9651 12.1553 15.6721C11.71 15.3791 11.3629 14.9626 11.1579 14.4754C10.9529 13.9882 10.8993 13.452 11.0038 12.9348C11.1083 12.4176 11.3662 11.9424 11.745 11.5695C12.1237 11.1966 12.6062 10.9427 13.1316 10.8398C13.6569 10.7369 14.2014 10.7897 14.6962 10.9915C15.1911 11.1934 15.614 11.5351 15.9116 11.9736C16.2092 12.4121 16.368 12.9276 16.368 13.455C16.3672 14.162 16.0816 14.8397 15.5739 15.3396C15.0662 15.8395 14.3779 16.1207 13.6599 16.1215Z" fill="#333333"/>
<path d="M13.6594 7.65705C14.0523 7.65705 14.4363 7.54234 14.763 7.32742C15.0896 7.11251 15.3442 6.80704 15.4945 6.44966C15.6449 6.09227 15.6842 5.69902 15.6075 5.31963C15.5309 4.94025 15.3416 4.59177 15.0638 4.31826C14.786 4.04476 14.432 3.85851 14.0467 3.78309C13.6614 3.70766 13.262 3.74643 12.8991 3.89451C12.5361 4.04258 12.2259 4.2933 12.0077 4.61497C11.7895 4.93663 11.673 5.31478 11.6731 5.70161C11.6738 6.22007 11.8833 6.71709 12.2557 7.08367C12.628 7.45025 13.1328 7.65645 13.6594 7.65705ZM13.6594 5.0173C13.7968 5.0173 13.9311 5.05741 14.0453 5.13255C14.1596 5.2077 14.2486 5.31451 14.3012 5.43948C14.3538 5.56444 14.3676 5.70196 14.3408 5.83463C14.314 5.96731 14.2479 6.08919 14.1507 6.18486C14.0536 6.28053 13.9299 6.3457 13.7951 6.37213C13.6604 6.39855 13.5207 6.38505 13.3938 6.33333C13.2668 6.2816 13.1583 6.19398 13.0819 6.08154C13.0056 5.96909 12.9648 5.83688 12.9647 5.70161C12.9648 5.52021 13.038 5.34626 13.1683 5.21796C13.2985 5.08966 13.4752 5.01749 13.6594 5.0173Z" fill="#333333"/>
<path d="M13.6594 19.2528C13.2665 19.2528 12.8825 19.3675 12.5558 19.5825C12.2292 19.7974 11.9746 20.1028 11.8243 20.4602C11.6739 20.8176 11.6346 21.2109 11.7113 21.5902C11.788 21.9696 11.9772 22.3181 12.255 22.5916C12.5328 22.8651 12.8868 23.0514 13.2721 23.1268C13.6574 23.2022 14.0568 23.1634 14.4198 23.0154C14.7827 22.8673 15.0929 22.6166 15.3111 22.2949C15.5293 21.9733 15.6458 21.5951 15.6457 21.2083C15.645 20.6898 15.4355 20.1928 15.0632 19.8262C14.6908 19.4596 14.186 19.2534 13.6594 19.2528ZM13.6594 21.8926C13.522 21.8926 13.3877 21.8525 13.2735 21.7773C13.1593 21.7022 13.0702 21.5954 13.0176 21.4704C12.965 21.3454 12.9513 21.2079 12.978 21.0753C13.0048 20.9426 13.071 20.8207 13.1681 20.725C13.2652 20.6294 13.3889 20.5642 13.5237 20.5378C13.6584 20.5113 13.7981 20.5248 13.925 20.5766C14.052 20.6283 14.1605 20.7159 14.2369 20.8283C14.3132 20.9408 14.354 21.073 14.3541 21.2083C14.354 21.3897 14.2808 21.5636 14.1505 21.6919C14.0203 21.8202 13.8436 21.8924 13.6594 21.8926Z" fill="#333333"/>
<path d="M5.78552 11.4989C5.39259 11.4989 5.00847 11.6135 4.68173 11.8284C4.35499 12.0433 4.10031 12.3488 3.9499 12.7062C3.79949 13.0636 3.7601 13.4569 3.83672 13.8364C3.91334 14.2158 4.10252 14.5644 4.38034 14.838C4.65816 15.1116 5.01214 15.2979 5.39752 15.3734C5.78289 15.4489 6.18235 15.4102 6.54538 15.2622C6.9084 15.1141 7.21869 14.8634 7.43699 14.5417C7.6553 14.2201 7.77182 13.8419 7.77182 13.455C7.77126 12.9364 7.56182 12.4393 7.18945 12.0726C6.81707 11.7058 6.31218 11.4996 5.78552 11.4989ZM5.78552 14.1393C5.64805 14.1393 5.51365 14.0993 5.39931 14.0241C5.28498 13.949 5.19585 13.8421 5.1432 13.7171C5.09055 13.592 5.07674 13.4544 5.10352 13.3217C5.1303 13.1889 5.19647 13.0669 5.29365 12.9712C5.39084 12.8755 5.51467 12.8103 5.6495 12.7838C5.78433 12.7574 5.92408 12.7709 6.0511 12.8227C6.17811 12.8745 6.28667 12.9622 6.36305 13.0748C6.43944 13.1873 6.4802 13.3196 6.4802 13.455C6.48009 13.6364 6.40687 13.8103 6.27663 13.9386C6.14638 14.0669 5.96976 14.1391 5.78552 14.1393Z" fill="#333333"/>
<path d="M23.5213 13.4547C23.5212 13.0678 23.4047 12.6897 23.1864 12.3681C22.9681 12.0465 22.6579 11.7958 22.2949 11.6478C21.932 11.4998 21.5326 11.461 21.1472 11.5365C20.7619 11.612 20.408 11.7983 20.1302 12.0718C19.8524 12.3453 19.6632 12.6938 19.5865 13.0732C19.5099 13.4526 19.5492 13.8458 19.6995 14.2032C19.8499 14.5606 20.1044 14.8661 20.4311 15.081C20.7577 15.296 21.1418 15.4107 21.5346 15.4107C22.0614 15.4102 22.5663 15.2039 22.9388 14.8372C23.3112 14.4705 23.5207 13.9733 23.5213 13.4547ZM21.5346 14.139C21.3972 14.139 21.2628 14.0988 21.1485 14.0236C21.0342 13.9485 20.9452 13.8416 20.8926 13.7165C20.84 13.5915 20.8262 13.4539 20.853 13.3212C20.8798 13.1884 20.946 13.0665 21.0432 12.9708C21.1404 12.8751 21.2642 12.8099 21.3991 12.7835C21.5339 12.7571 21.6736 12.7707 21.8006 12.8225C21.9276 12.8742 22.0362 12.962 22.1125 13.0745C22.1889 13.187 22.2297 13.3193 22.2297 13.4547C22.2295 13.6361 22.1563 13.8101 22.026 13.9384C21.8956 14.0667 21.7189 14.1389 21.5346 14.139Z" fill="#333333"/>
</svg>
