<svg width="31" height="28" viewBox="0 0 31 28" fill="none" xmlns="http://www.w3.org/2000/svg">
<path fill-rule="evenodd" clip-rule="evenodd" d="M5.26948 19.6175C4.62546 19.4487 4.03244 19.1612 3.50918 18.7632C3.00288 18.3785 2.58323 17.9091 2.25833 17.368C1.93407 16.8245 1.72486 16.237 1.63354 15.6216C1.53826 14.983 1.5782 14.3441 1.74928 13.7199L5.45463 0.198651C5.49409 0.054619 5.64399 -0.0290164 5.79009 0.00927119L14.8453 2.38125C14.9914 2.41952 15.0783 2.56563 15.039 2.70926L11.3336 16.2306C11.1625 16.8548 10.8692 17.4273 10.4614 17.9341C10.0675 18.4224 9.58513 18.8287 9.02753 19.1398C8.46995 19.451 7.86571 19.6521 7.23129 19.738C6.57408 19.8272 5.91309 19.7861 5.26946 19.6175L5.26948 19.6175ZM4.59012 5.85457C5.89952 6.28436 4.99998 7.27479 9.03091 7.13519C10.3913 7.08808 12.3846 6.6167 12.8953 8.0305L14.299 2.90837L5.99364 0.733007L4.59013 5.85458L4.59012 5.85457Z" fill="#333333"/>
<path fill-rule="evenodd" clip-rule="evenodd" d="M3.34355 26.6444C3.02027 26.5597 2.82955 26.2347 2.91612 25.9188L5.57333 16.2223C5.65976 15.907 5.99166 15.7196 6.31422 15.8041C6.6373 15.8887 6.82978 16.2127 6.74315 16.5288L4.08595 26.2253C3.99951 26.5407 3.66612 26.7289 3.34355 26.6444L3.34355 26.6444Z" fill="#333333"/>
<path fill-rule="evenodd" clip-rule="evenodd" d="M6.20743 27.4567L0.448493 25.9479C0.125927 25.8634 -0.0656963 25.5389 0.0207425 25.2235C0.107366 24.9075 0.438473 24.7206 0.761592 24.8052L6.52065 26.3137C6.84352 26.3982 7.03384 26.7212 6.94877 27.0368C6.8634 27.3535 6.53085 27.5415 6.20743 27.4567V27.4567Z" fill="#333333"/>
<path fill-rule="evenodd" clip-rule="evenodd" d="M24.827 19.6175C25.4711 19.4487 26.0641 19.1612 26.5873 18.7632C27.0936 18.3785 27.5133 17.9091 27.8382 17.368C28.1624 16.8245 28.3717 16.237 28.463 15.6216C28.5583 14.983 28.5183 14.3441 28.3472 13.7199L24.6419 0.198651C24.6024 0.054619 24.4525 -0.0290164 24.3064 0.00927119L15.2512 2.38125C15.1052 2.41952 15.0182 2.56563 15.0576 2.70926L18.7629 16.2306C18.934 16.8548 19.2273 17.4273 19.6352 17.9341C20.029 18.4224 20.5114 18.8287 21.069 19.1398C21.6266 19.451 22.2308 19.6521 22.8652 19.738C23.5224 19.8272 24.1834 19.7861 24.8271 19.6175L24.827 19.6175ZM25.5064 5.85457C24.197 6.28436 25.0965 7.27479 21.0656 7.13519C19.7052 7.08808 17.7119 6.6167 17.2012 8.0305L15.7975 2.90837L24.1029 0.733007L25.5064 5.85458L25.5064 5.85457Z" fill="#333333"/>
<path fill-rule="evenodd" clip-rule="evenodd" d="M26.7519 26.6441C27.0752 26.5594 27.2659 26.2344 27.1793 25.9185L24.5221 16.2221C24.4357 15.9067 24.1038 15.7193 23.7812 15.8038C23.4582 15.8884 23.2657 16.2125 23.3523 16.5285L26.0095 26.225C26.0959 26.5404 26.4293 26.7286 26.7519 26.6441V26.6441Z" fill="#333333"/>
<path fill-rule="evenodd" clip-rule="evenodd" d="M23.8895 27.4567L29.6485 25.9479C29.971 25.8634 30.1627 25.5389 30.0762 25.2235C29.9896 24.9075 29.6585 24.7206 29.3354 24.8052L23.5763 26.3137C23.2535 26.3982 23.0631 26.7212 23.1482 27.0368C23.2336 27.3535 23.5661 27.5415 23.8895 27.4567V27.4567Z" fill="#333333"/>
</svg>
