<svg width="26" height="26" viewBox="0 0 26 26" fill="none" xmlns="http://www.w3.org/2000/svg">
<path d="M20.941 24.1598L20.4138 24.6874C20.2316 24.8698 19.9777 24.961 19.7304 24.935C19.483 24.9089 19.2422 24.7656 19.1055 24.5572L13.8657 16.7274L9.15959 21.437L10.5656 24.3552C10.7153 24.6809 10.6567 25.0718 10.3963 25.3323L9.98625 25.7427C9.8105 25.9186 9.56316 26.0033 9.32232 25.9902C9.08148 25.9772 8.84716 25.8469 8.69745 25.645L5.13047 20.8572L0.346286 17.2876C0.151013 17.1377 0.0273401 16.9098 0.00130375 16.6622C-0.0117144 16.4147 0.0729039 16.1672 0.248649 15.9978L0.658722 15.5874C0.912577 15.3334 1.30312 15.2617 1.63509 15.4181L4.55116 16.8251L9.25723 12.1155L1.44632 6.87822C1.23152 6.73491 1.08832 6.50692 1.06879 6.25288C1.04927 5.99883 1.13389 5.7513 1.31614 5.56891L1.84338 5.04128C2.0777 4.80677 2.42919 4.72861 2.73512 4.84586L12.9088 8.47415L19.828 1.54978C19.841 1.53675 19.854 1.52373 19.8736 1.50418C21.5464 -0.169909 23.9482 -0.495608 25.2175 0.774619C26.4868 2.04485 26.1613 4.44199 24.4885 6.1226C24.4755 6.13563 24.4625 6.14865 24.4429 6.1682L24.4299 6.18122L17.5173 13.0926L21.1428 23.2739C21.247 23.5801 21.1689 23.9318 20.941 24.1598ZM19.854 23.6517L20.0233 23.4824L16.3977 13.301C16.287 12.9883 16.3586 12.6431 16.593 12.4086L23.6879 5.30835C24.8986 4.09675 25.237 2.37706 24.4169 1.5563C23.5968 0.735535 21.8849 1.06775 20.6677 2.28586L20.6156 2.33797L13.5858 9.3861C13.3514 9.62061 13 9.69878 12.694 9.58152L2.52032 5.95324L2.35109 6.1226L10.162 11.3598C10.3768 11.5031 10.52 11.7311 10.5395 11.9852C10.559 12.2392 10.4744 12.4868 10.2922 12.6692L5.22159 17.7435C4.96774 17.9976 4.57719 18.0692 4.24523 17.9129L1.32916 16.5059L1.27709 16.558L5.84647 19.9648C5.91156 20.0169 5.97014 20.0756 6.02221 20.1407L9.42647 24.7135L9.47854 24.6614L8.07257 21.7431C7.92287 21.4174 7.98145 21.0266 8.24181 20.766L13.3124 15.6916C13.4946 15.5092 13.7485 15.4181 13.9958 15.4441C14.2432 15.4702 14.484 15.6135 14.6207 15.8219L19.854 23.6517Z" fill="#333333"/>
</svg>
