<svg width="14" height="18" viewBox="0 0 14 18" fill="none" xmlns="http://www.w3.org/2000/svg">
<path d="M4.97594 17.5H1.14829C0.937008 17.5 0.765529 17.3263 0.765529 17.1139V12.3637L0.111767 11.7042C0.040573 11.6317 0 11.5336 0 11.4309V6.38954C0 5.29772 0.865048 4.375 1.89009 4.375H4.23491C5.25919 4.375 6.125 5.29772 6.125 6.38954V11.4309C6.125 11.5351 6.08443 11.6332 6.01323 11.7042L5.35871 12.3629V17.1132C5.35871 17.3263 5.18723 17.5 4.97594 17.5ZM1.53106 16.7278H4.59318V12.2031C4.59318 12.1004 4.63375 12.0023 4.70494 11.9297L5.35871 11.2703V6.38954C5.35871 5.73784 4.82283 5.14715 4.23414 5.14715H1.89009C1.3014 5.14561 0.765529 5.73784 0.765529 6.38799V11.2695L1.41929 11.9289C1.49125 12.0015 1.53106 12.0996 1.53106 12.2023V16.7278Z" fill="#4F4F4F"/>
<path d="M3.0625 4.375C1.85646 4.375 0.875 3.39354 0.875 2.1875C0.875 0.982917 1.85646 0 3.0625 0C4.26854 0 5.25 0.982917 5.25 2.1875C5.25 3.39427 4.26854 4.375 3.0625 4.375ZM3.0625 0.729167C2.25823 0.729167 1.60417 1.38323 1.60417 2.1875C1.60417 2.9925 2.25823 3.64583 3.0625 3.64583C3.86677 3.64583 4.52083 2.9925 4.52083 2.1875C4.52083 1.38396 3.86677 0.729167 3.0625 0.729167Z" fill="#4F4F4F"/>
<path d="M12.2468 17.5H8.77089C8.57902 17.5 8.4233 17.3263 8.4233 17.114V14.4118H7.34786C7.24428 14.4118 7.14557 14.3608 7.07952 14.2697C7.01348 14.1817 6.98637 14.0628 7.00653 13.9516L7.73438 9.81416L7.72812 6.3893C7.72812 5.29761 8.51367 4.375 9.44451 4.375H11.5738C12.504 4.375 13.2902 5.29761 13.2902 6.3893V9.88596L13.9625 13.8505C13.9861 13.9014 14 13.9632 14 14.0257C14 14.2381 13.8436 14.4118 13.6524 14.4118C13.6496 14.4125 13.6434 14.4125 13.6378 14.4118H12.5944V17.114C12.5944 17.3263 12.4386 17.5 12.2468 17.5ZM9.11848 16.7279H11.8992V14.0257C11.8992 13.8134 12.0556 13.6397 12.2468 13.6397H13.2186L12.5985 9.95853L12.5937 6.3893C12.5937 5.73768 12.107 5.14706 11.5724 5.14706H9.44312C8.90853 5.14706 8.42191 5.74 8.42191 6.3893V9.88596L7.76914 13.6382H8.77019C8.96206 13.6382 9.11778 13.8126 9.11778 14.0242V16.7279H9.11848Z" fill="#4F4F4F"/>
<path d="M10.0625 4.375C8.85719 4.375 7.875 3.39354 7.875 2.1875C7.875 0.982917 8.85719 0 10.0625 0C11.2685 0 12.25 0.982917 12.25 2.1875C12.25 3.39427 11.2693 4.375 10.0625 4.375ZM10.0625 0.729167C9.25823 0.729167 8.60417 1.38323 8.60417 2.1875C8.60417 2.9925 9.25823 3.64583 10.0625 3.64583C10.8675 3.64583 11.5208 2.9925 11.5208 2.1875C11.5208 1.38396 10.8675 0.729167 10.0625 0.729167Z" fill="#4F4F4F"/>
</svg>
