<svg width="22" height="21" viewBox="0 0 22 21" fill="none" xmlns="http://www.w3.org/2000/svg">
<path fill-rule="evenodd" clip-rule="evenodd" d="M20.8181 9.68994C19.8522 14.1295 15.1523 17.4982 9.49988 17.4982C8.68452 17.4982 7.88897 17.4281 7.12158 17.2948C8.67917 18.6459 10.9594 19.4982 13.4999 19.4982C14.8975 19.4982 16.2164 19.2402 17.3795 18.7832C17.9454 18.5608 19.8343 19.1848 21.0145 19.6188C21.4107 19.7646 21.82 19.3895 21.7113 18.9816C21.4074 17.8412 21.007 16.0906 21.2726 15.633C21.7401 14.8276 21.9999 13.9361 21.9999 12.9982C21.9999 11.7901 21.5689 10.659 20.8181 9.68994Z" fill="#333333"/>
<path d="M19 8C19 12.1421 14.7467 15.5 9.5 15.5C8.07102 15.5 6.71574 15.2509 5.5 14.8048C4.85423 14.5678 2.42216 15.2467 1.0178 15.6764C0.61212 15.8006 0.22655 15.397 0.36365 14.9955C0.77292 13.797 1.33908 11.8878 1 11.3531C0.3601 10.3441 0 9.2052 0 8C0 3.85786 4.25329 0.5 9.5 0.5C14.7467 0.5 19 3.85786 19 8Z" fill="#333333"/>
</svg>
