<svg width="16" height="11" viewBox="0 0 16 11" fill="none" xmlns="http://www.w3.org/2000/svg">
<path d="M16.0002 6.85721C16.0005 6.81264 15.9914 6.7685 15.9735 6.72768C15.9735 6.72768 15.9735 6.72768 15.9735 6.70863C15.9618 6.68446 15.9478 6.6615 15.9316 6.64006L13.2649 3.21146C13.2299 3.161 13.1832 3.11974 13.1288 3.09122C13.0744 3.0627 13.0139 3.04775 12.9525 3.04765V0.380956C12.9525 0.27992 12.9124 0.183023 12.8409 0.111579C12.7695 0.0401364 12.6726 0 12.5715 0H3.4286C3.32757 0 3.23067 0.0401364 3.15923 0.111579C3.08778 0.183023 3.04765 0.27992 3.04765 0.380956V3.04765C2.98947 3.04779 2.9321 3.06125 2.87993 3.087C2.82776 3.11276 2.78218 3.15012 2.74669 3.19622L0.0800008 6.62482C0.0638282 6.64626 0.0497928 6.66923 0.0380956 6.6934C0.0380956 6.6934 0.0380956 6.6934 0.0380956 6.71244C0.0139931 6.75695 0.000928564 6.8066 0 6.85721C0 6.85721 0 6.85721 0 6.85721V9.14294C0 9.24398 0.0401363 9.34088 0.111579 9.41232C0.183023 9.48376 0.27992 9.5239 0.380956 9.5239V10.2858C0.380956 10.3868 0.421092 10.4837 0.492536 10.5552C0.563979 10.6266 0.660876 10.6668 0.761912 10.6668H1.90478C2.00582 10.6668 2.10271 10.6266 2.17416 10.5552C2.2456 10.4837 2.28574 10.3868 2.28574 10.2858V9.5239H13.7144V10.2858C13.7144 10.3868 13.7546 10.4837 13.826 10.5552C13.8974 10.6266 13.9943 10.6668 14.0954 10.6668H15.2382C15.3393 10.6668 15.4362 10.6266 15.5076 10.5552C15.5791 10.4837 15.6192 10.3868 15.6192 10.2858V9.5239C15.7202 9.5239 15.8171 9.48376 15.8886 9.41232C15.96 9.34088 16.0002 9.24398 16.0002 9.14294V6.85721ZM15.2382 8.76199H0.761912V7.23816H15.2382V8.76199ZM3.80956 0.761912H12.1906V3.04765H11.8096V2.49526C11.8086 2.23793 11.706 1.99142 11.524 1.80946C11.342 1.6275 11.0955 1.52483 10.8382 1.52382H9.35247C9.09514 1.52483 8.84863 1.6275 8.66667 1.80946C8.4847 1.99142 8.38204 2.23793 8.38103 2.49526V3.04765H7.61912V2.49526C7.61812 2.23793 7.51545 1.99142 7.33348 1.80946C7.15152 1.6275 6.90501 1.52483 6.64768 1.52382H5.16195C4.90462 1.52483 4.65811 1.6275 4.47615 1.80946C4.29419 1.99142 4.19152 2.23793 4.19052 2.49526V3.04765H3.80956V0.761912ZM11.0477 3.04765H9.14294V2.49526C9.14294 2.43969 9.16502 2.3864 9.20431 2.3471C9.24361 2.30781 9.2969 2.28574 9.35247 2.28574H10.8382C10.8938 2.28574 10.9471 2.30781 10.9864 2.3471C11.0256 2.3864 11.0477 2.43969 11.0477 2.49526V3.04765ZM6.85721 3.04765H4.95243V2.49526C4.95243 2.43969 4.9745 2.3864 5.0138 2.3471C5.05309 2.30781 5.10638 2.28574 5.16195 2.28574H6.64768C6.70325 2.28574 6.75655 2.30781 6.79584 2.3471C6.83513 2.3864 6.85721 2.43969 6.85721 2.49526V3.04765ZM3.23432 3.80956H12.7582L14.8573 6.47625H1.14287L3.23432 3.80956ZM1.52382 9.90485H1.14287V9.5239H1.52382V9.90485ZM14.8573 9.90485H14.4763V9.5239H14.8573V9.90485Z" fill="#4F4F4F"/>
</svg>
