<svg width="13" height="10" viewBox="0 0 13 10" fill="none" xmlns="http://www.w3.org/2000/svg">
<path d="M12.9316 6.19966C12.9319 6.16363 12.9246 6.12796 12.9101 6.09497C12.9101 6.09497 12.9101 6.09497 12.9101 6.07958C12.9006 6.06004 12.8893 6.04148 12.8762 6.02416L10.7209 3.25309C10.6926 3.21231 10.6549 3.17897 10.6109 3.15592C10.567 3.13286 10.5181 3.12078 10.4685 3.1207V0.965428C10.4685 0.883769 10.436 0.805454 10.3783 0.747712C10.3205 0.689971 10.2422 0.657532 10.1606 0.657532H2.77106C2.6894 0.657532 2.61109 0.689971 2.55335 0.747712C2.49561 0.805454 2.46317 0.883769 2.46317 0.965428V3.1207C2.41615 3.12081 2.36978 3.13169 2.32761 3.15251C2.28545 3.17332 2.24861 3.20352 2.21993 3.24078L0.0646582 6.01184C0.0515872 6.02917 0.0402435 6.04773 0.0307896 6.06726C0.0307896 6.06726 0.0307896 6.06726 0.0307896 6.08266C0.0113095 6.11863 0.000750483 6.15876 0 6.19966C0 6.19966 0 6.19966 0 6.19966V8.04703C0 8.12869 0.0324389 8.20701 0.0901806 8.26475C0.147922 8.32249 0.226237 8.35493 0.307896 8.35493V8.97072C0.307896 9.05238 0.340335 9.1307 0.398077 9.18844C0.455818 9.24618 0.534133 9.27862 0.615792 9.27862H1.53948C1.62114 9.27862 1.69945 9.24618 1.75719 9.18844C1.81494 9.1307 1.84738 9.05238 1.84738 8.97072V8.35493H11.0843V8.97072C11.0843 9.05238 11.1167 9.1307 11.1744 9.18844C11.2322 9.24618 11.3105 9.27862 11.3922 9.27862H12.3158C12.3975 9.27862 12.4758 9.24618 12.5336 9.18844C12.5913 9.1307 12.6237 9.05238 12.6237 8.97072V8.35493C12.7054 8.35493 12.7837 8.32249 12.8414 8.26475C12.8992 8.20701 12.9316 8.12869 12.9316 8.04703V6.19966ZM12.3158 7.73914H0.615792V6.50755H12.3158V7.73914ZM3.07896 1.27332H9.85267V3.1207H9.54478V2.67425C9.54396 2.46627 9.46098 2.26704 9.31392 2.11997C9.16685 1.97291 8.96762 1.88993 8.75964 1.88912H7.55885C7.35086 1.88993 7.15163 1.97291 7.00457 2.11997C6.8575 2.26704 6.77452 2.46627 6.77371 2.67425V3.1207H6.15792V2.67425C6.15711 2.46627 6.07413 2.26704 5.92706 2.11997C5.78 1.97291 5.58077 1.88993 5.37278 1.88912H4.17199C3.96401 1.88993 3.76478 1.97291 3.61771 2.11997C3.47065 2.26704 3.38767 2.46627 3.38686 2.67425V3.1207H3.07896V1.27332ZM8.92898 3.1207H7.3895V2.67425C7.3895 2.62934 7.40734 2.58626 7.4391 2.55451C7.47086 2.52275 7.51393 2.50491 7.55885 2.50491H8.75964C8.80455 2.50491 8.84763 2.52275 8.87938 2.55451C8.91114 2.58626 8.92898 2.62934 8.92898 2.67425V3.1207ZM5.54213 3.1207H4.00265V2.67425C4.00265 2.62934 4.02049 2.58626 4.05225 2.55451C4.084 2.52275 4.12708 2.50491 4.17199 2.50491H5.37278C5.4177 2.50491 5.46077 2.52275 5.49253 2.55451C5.52429 2.58626 5.54213 2.62934 5.54213 2.67425V3.1207ZM2.61404 3.73649H10.3114L12.0079 5.89176H0.923688L2.61404 3.73649ZM1.23158 8.66283H0.923688V8.35493H1.23158V8.66283ZM12.0079 8.66283H11.7V8.35493H12.0079V8.66283Z" fill="#219653"/>
</svg>
