<svg width="14" height="18" viewBox="0 0 14 18" fill="none" xmlns="http://www.w3.org/2000/svg">
<path d="M13.7329 6.00833V7.85367L13.6219 8.06182C13.4792 8.9105 13.1399 9.7189 12.6284 10.4293C11.0818 12.6218 9.53609 14.7794 7.98944 16.9728C7.73229 17.355 7.4742 17.669 6.99597 17.773H6.81096C6.25965 17.7031 5.96456 17.3209 5.70741 16.9378C4.30784 14.9534 2.9092 13.0049 1.51057 11.0205C0.921325 10.1503 0.369085 9.28009 0.148004 8.23586C0.111003 8.06182 0.037001 7.85279 0 7.67875V6.18324C0.037001 6.11328 0.074002 6.04331 0.074002 6.00833C0.516164 3.67672 1.8408 2.0404 4.08769 1.03115C4.63993 0.787146 5.26432 0.683073 5.85449 0.509033H7.87936C7.91637 0.544016 7.99037 0.578999 8.02644 0.578999C10.6766 1.03115 12.4444 2.49343 13.3638 4.86002C13.5488 5.24308 13.6228 5.62527 13.7329 6.00833ZM6.88496 17.0069C7.03297 16.8329 7.14304 16.6938 7.21612 16.5897C8.78752 14.3816 10.3462 12.1654 11.8921 9.94127C12.7755 8.68888 13.0327 7.29657 12.7385 5.83429C12.0392 2.59751 8.50468 0.543141 5.22824 1.51829C1.65765 2.56252 -0.220156 6.49546 1.73165 9.66315C2.57805 11.0555 3.60945 12.3428 4.52892 13.701C5.31867 14.8002 6.10402 15.9022 6.88496 17.0069Z" fill="#333333"/>
<path d="M10.1377 7.5056C10.1377 9.13545 8.7318 10.5039 6.93764 10.5039C5.14349 10.5039 3.73755 9.13545 3.73755 7.5056C3.73755 5.87575 5.14349 4.50732 6.93764 4.50732C8.7318 4.50732 10.1377 5.87575 10.1377 7.5056Z" stroke="#333333"/>
</svg>
