<svg width="14" height="14" viewBox="0 0 14 14" fill="none" xmlns="http://www.w3.org/2000/svg">
<path d="M13.5938 2.34375H1.40625C1.14697 2.34375 0.9375 2.55322 0.9375 2.8125V12.1875C0.9375 12.4468 1.14697 12.6562 1.40625 12.6562H13.5938C13.853 12.6562 14.0625 12.4468 14.0625 12.1875V2.8125C14.0625 2.55322 13.853 2.34375 13.5938 2.34375ZM13.0078 3.9668V11.6016H1.99219V3.9668L1.58789 3.65186L2.16357 2.91211L2.79053 3.3999H12.2109L12.8379 2.91211L13.4136 3.65186L13.0078 3.9668ZM12.2109 3.39844L7.5 7.06055L2.78906 3.39844L2.16211 2.91064L1.58643 3.65039L1.99072 3.96533L6.99463 7.85596C7.13853 7.96775 7.31557 8.02844 7.4978 8.02844C7.68003 8.02844 7.85707 7.96775 8.00098 7.85596L13.0078 3.9668L13.4121 3.65186L12.8364 2.91211L12.2109 3.39844Z" fill="#4F4F4F"/>
</svg>
