<svg width="12" height="12" viewBox="0 0 12 12" fill="none" xmlns="http://www.w3.org/2000/svg">
<path fill-rule="evenodd" clip-rule="evenodd" d="M2.04584 8.46611C1.79579 8.4006 1.56554 8.28897 1.36237 8.13444C1.16579 7.98506 1.00285 7.80281 0.876706 7.59272C0.750808 7.38171 0.669578 7.15359 0.634122 6.91467C0.597128 6.66671 0.612637 6.41866 0.679059 6.17629L2.11772 0.926434C2.13305 0.870511 2.19125 0.838038 2.24797 0.852904L5.7638 1.77387C5.82052 1.78872 5.85428 1.84545 5.839 1.90122L4.40033 7.15109C4.33392 7.39346 4.22003 7.61574 4.06167 7.81253C3.90877 8.0021 3.72146 8.15987 3.50496 8.28066C3.28847 8.40147 3.05387 8.47958 2.80754 8.51292C2.55237 8.54754 2.29573 8.5316 2.04583 8.46613L2.04584 8.46611ZM1.78206 3.12244C2.29046 3.28931 1.9412 3.67386 3.50627 3.61966C4.03447 3.60137 4.80841 3.41835 5.0067 3.96728L5.55169 1.97853L2.327 1.13391L1.78207 3.12244L1.78206 3.12244Z" fill="#219653"/>
<path fill-rule="evenodd" clip-rule="evenodd" d="M1.29832 11.1945C1.1728 11.1616 1.09875 11.0354 1.13237 10.9127L2.16407 7.14793C2.19763 7.02548 2.3265 6.95272 2.45174 6.98554C2.57718 7.01839 2.65191 7.1442 2.61828 7.26692L1.58657 11.0317C1.55301 11.1542 1.42356 11.2273 1.29832 11.1945L1.29832 11.1945Z" fill="#219653"/>
<path fill-rule="evenodd" clip-rule="evenodd" d="M2.41014 11.5098L0.174135 10.924C0.0488933 10.8912 -0.0255077 10.7652 0.00805362 10.6427C0.0416868 10.52 0.170244 10.4475 0.295701 10.4803L2.53175 11.066C2.65711 11.0988 2.73101 11.2242 2.69798 11.3468C2.66483 11.4697 2.53571 11.5427 2.41014 11.5098V11.5098Z" fill="#219653"/>
<path fill-rule="evenodd" clip-rule="evenodd" d="M9.63986 8.46611C9.88991 8.4006 10.1202 8.28897 10.3233 8.13444C10.5199 7.98506 10.6828 7.80281 10.809 7.59272C10.9349 7.38171 11.0161 7.15359 11.0516 6.91467C11.0886 6.66671 11.0731 6.41866 11.0066 6.17629L9.56797 0.926434C9.55265 0.870511 9.49445 0.838038 9.43772 0.852904L5.92189 1.77387C5.86518 1.78872 5.83142 1.84545 5.84669 1.90122L7.28536 7.15109C7.35178 7.39346 7.46566 7.61574 7.62403 7.81253C7.77692 8.0021 7.96423 8.15987 8.18073 8.28066C8.39722 8.40147 8.63183 8.47958 8.87815 8.51292C9.13332 8.54754 9.38996 8.5316 9.63986 8.46613L9.63986 8.46611ZM9.90363 3.12244C9.39523 3.28931 9.74449 3.67386 8.17942 3.61966C7.65123 3.60137 6.87728 3.41835 6.679 3.96728L6.134 1.97853L9.35869 1.13391L9.90363 3.12244L9.90363 3.12244Z" fill="#219653"/>
<path fill-rule="evenodd" clip-rule="evenodd" d="M10.3873 11.1945C10.5129 11.1616 10.5869 11.0354 10.5533 10.9127L9.52159 7.14793C9.48803 7.02548 9.35917 6.95272 9.23393 6.98554C9.10849 7.01839 9.03375 7.1442 9.06739 7.26692L10.0991 11.0317C10.1327 11.1542 10.2621 11.2273 10.3873 11.1945V11.1945Z" fill="#219653"/>
<path fill-rule="evenodd" clip-rule="evenodd" d="M9.27569 11.5098L11.5117 10.924C11.6369 10.8912 11.7113 10.7652 11.6778 10.6427C11.6441 10.52 11.5156 10.4475 11.3901 10.4803L9.15408 11.066C9.02872 11.0988 8.95482 11.2242 8.98785 11.3468C9.021 11.4697 9.15011 11.5427 9.27569 11.5098V11.5098Z" fill="#219653"/>
</svg>
