<svg width="12" height="20" viewBox="0 0 12 20" fill="none" xmlns="http://www.w3.org/2000/svg">
<g clip-path="url(#clip0)">
<path d="M0 18.682C0.332 17.792 1.109 17.25 1.667 16.534C2.933 14.884 4.042 13.156 4.522 11.104C4.784 9.95201 4.845 8.78201 4.609 7.52501C4.426 7.75201 4.251 7.90001 4.155 8.09301C3.771 8.85201 3.378 9.61201 3.055 10.406C2.767 11.113 2.191 11.488 1.536 11.288C0.873 11.078 0.541 10.432 0.768 9.71601C1.449 7.56001 2.618 5.75301 4.531 4.47001C5.211 4.01601 5.901 4.13001 6.347 4.80101C7.237 6.14601 8.32 7.26301 9.821 7.94401C10.415 8.21401 10.641 8.92201 10.38 9.50701C10.118 10.109 9.402 10.423 8.773 10.153C8.337 9.96101 7.927 9.70801 7.508 9.47201C7.385 9.40201 7.263 9.33201 7.124 9.24501C7.054 9.89101 7.028 10.493 6.931 11.087C6.635 12.955 5.884 14.649 4.836 16.203C4.138 17.233 3.344 18.202 2.549 19.162C2.269 19.494 1.859 19.721 1.51 20H0.986C0.748516 19.8989 0.538003 19.7435 0.371305 19.5464C0.204607 19.3494 0.0863518 19.116 0.026 18.865C0 18.795 0 18.735 0 18.682Z" fill="#4F4F4F"/>
<path d="M11.349 19.031C11.104 19.301 10.912 19.66 10.615 19.825C10.092 20.113 9.481 19.852 9.184 19.293C8.36288 17.7075 7.55385 16.1158 6.757 14.518C6.69072 14.3919 6.67499 14.2453 6.713 14.108C7.01 13.217 7.324 12.335 7.647 11.418C7.717 11.55 7.796 11.689 7.874 11.838C9.027 14.081 10.17 16.334 11.323 18.577C11.3324 18.5859 11.3442 18.5918 11.357 18.594C11.349 18.734 11.349 18.883 11.349 19.031ZM5.587 0C5.91 0.183 6.277 0.323 6.547 0.567C7.185 1.135 7.29801 1.99 6.905 2.75C6.71642 3.10512 6.41862 3.39017 6.05559 3.56304C5.69257 3.73591 5.28356 3.78743 4.889 3.71C4.50178 3.6295 4.15014 3.42805 3.88485 3.13472C3.61955 2.84138 3.45432 2.47134 3.413 2.078C3.36956 1.67833 3.45664 1.27533 3.66122 0.929258C3.8658 0.583181 4.1769 0.312612 4.548 0.158C4.662 0.113 4.775 0.052 4.888 0H5.587Z" fill="#4F4F4F"/>
</g>
<defs>
<clipPath id="clip0">
<rect width="12" height="20" fill="white"/>
</clipPath>
</defs>
</svg>
