<svg width="19" height="22" viewBox="0 0 19 22" fill="none" xmlns="http://www.w3.org/2000/svg">
<path fill-rule="evenodd" clip-rule="evenodd" d="M9.16656 0C5.55534 0 2.62786 2.95492 2.62786 6.6V9.42854C2.62786 10.4486 2.3001 11.4411 1.69377 12.2572L0.309144 14.1206C-0.220611 14.8336 -0.0657854 15.81 0.744883 16.1631C2.20372 16.7985 4.89115 17.6 9.16656 17.6C13.442 17.6 16.1294 16.7985 17.5882 16.1631C18.3989 15.81 18.5537 14.8336 18.024 14.1206L16.6393 12.2572C16.0331 11.4411 15.7053 10.4486 15.7053 9.42854V6.6C15.7053 2.95492 12.7778 0 9.16656 0ZM9.16656 21.45C7.8088 21.45 6.68294 20.4473 6.4761 19.1356C7.29257 19.208 8.18794 19.25 9.16656 19.25C10.1451 19.25 11.0406 19.208 11.857 19.1356C11.6502 20.4473 10.5243 21.45 9.16656 21.45Z" fill="#333333"/>
</svg>
