<svg width="16" height="14" viewBox="0 0 16 14" fill="none" xmlns="http://www.w3.org/2000/svg">
<path d="M10.7827 7.04529H10.0352L9.55812 5.55035C9.31956 4.78697 8.6039 4.26215 7.79281 4.26215H3.56243C2.75134 4.26215 2.05158 4.77106 1.79712 5.55035L1.32001 7.04529H0.588436C0.270363 7.04529 0 7.29975 0 7.63373V7.96771C0 8.28578 0.254459 8.55614 0.588436 8.55614H0.795184C0.683859 9.09687 0.620244 9.63759 0.620244 10.1942V12.9933C0.620244 13.3113 0.874703 13.5817 1.20868 13.5817H2.17881C2.49688 13.5817 2.76724 13.3272 2.76724 12.9933V12.0868H8.6357V12.9933C8.6357 13.3113 8.89016 13.5817 9.22414 13.5817H10.1943C10.5123 13.5817 10.7827 13.3272 10.7827 12.9933V10.1783C10.7827 9.62169 10.7191 9.08096 10.6078 8.54024H10.8145C11.1326 8.54024 11.4029 8.28578 11.4029 7.9518V7.61783C11.3711 7.31565 11.1008 7.04529 10.7827 7.04529ZM2.35375 7.64963L2.91037 5.91613C3.0058 5.62986 3.26026 5.43902 3.56243 5.43902H7.79281C8.09498 5.43902 8.34944 5.62986 8.44486 5.91613L9.00149 7.64963C9.03329 7.72915 8.96968 7.80867 8.89016 7.80867H2.46507C2.38555 7.80867 2.32194 7.72915 2.35375 7.64963ZM3.57833 10.4964H2.40146C2.21061 10.4964 2.03567 10.3374 2.03567 10.1306V9.57398C2.03567 9.35133 2.22652 9.19229 2.44917 9.2241L3.54652 9.39904C3.68966 9.41494 3.80098 9.52627 3.83279 9.6853L3.91231 10.067C3.97592 10.2896 3.81689 10.4964 3.57833 10.4964ZM9.31956 10.1465C9.31956 10.3374 9.16052 10.5123 8.95378 10.5123H7.7769C7.55425 10.5123 7.37931 10.3055 7.42702 10.0829L7.50654 9.70121C7.53835 9.55808 7.64967 9.44675 7.79281 9.41494L8.89016 9.24C9.11281 9.20819 9.30366 9.36723 9.30366 9.58988V10.1465H9.31956Z" fill="#4F4F4F"/>
<path d="M12.8343 1.35181H12.4844V2.30603H12.8343C13.1046 2.30603 13.3114 2.09928 13.3114 1.82892C13.3114 1.55855 13.1046 1.35181 12.8343 1.35181Z" fill="#4F4F4F"/>
<path d="M14.7268 0H11.0848C10.8781 0 10.7031 0.174941 10.7031 0.381689V4.02363C10.7031 4.23038 10.8781 4.40532 11.0848 4.40532H12.4525V13.3909C12.4525 13.5022 12.532 13.5818 12.6434 13.5818H13.1841C13.2954 13.5818 13.3749 13.5022 13.3749 13.3909V4.40532H14.7109C14.9176 4.40532 15.0925 4.23038 15.0925 4.02363V0.381689C15.1084 0.174941 14.9335 0 14.7268 0ZM12.8342 2.81495H12.4843V3.48291C12.4843 3.53062 12.4525 3.56243 12.4048 3.56243H12.039C11.9913 3.56243 11.9595 3.53062 11.9595 3.48291V0.970125C11.9595 0.890607 12.0231 0.826992 12.1026 0.826992H12.8024C13.3431 0.826992 13.8043 1.25639 13.8202 1.79712C13.8521 2.36965 13.3908 2.81495 12.8342 2.81495Z" fill="#4F4F4F"/>
</svg>
