<svg width="13" height="15" viewBox="0 0 13 15" fill="none" xmlns="http://www.w3.org/2000/svg">
<path d="M11.9947 11.677C11.6815 10.9351 11.227 10.2613 10.6566 9.69307C10.0879 9.12315 9.41417 8.66876 8.6727 8.35498C8.66606 8.35166 8.65942 8.35 8.65277 8.34668C9.68705 7.59961 10.3594 6.38271 10.3594 5.00977C10.3594 2.73535 8.51664 0.892578 6.24223 0.892578C3.96781 0.892578 2.12504 2.73535 2.12504 5.00977C2.12504 6.38271 2.7974 7.59961 3.83168 8.34834C3.82504 8.35166 3.8184 8.35332 3.81176 8.35664C3.06801 8.67041 2.40063 9.12031 1.82787 9.69473C1.25796 10.2634 0.803564 10.9371 0.489788 11.6786C0.181533 12.4045 0.015285 13.1828 4.15139e-05 13.9713C-0.00040159 13.989 0.00270627 14.0066 0.00918205 14.0231C0.0156578 14.0396 0.0253705 14.0547 0.0377476 14.0674C0.0501248 14.08 0.0649161 14.0901 0.08125 14.097C0.0975838 14.1039 0.11513 14.1074 0.132854 14.1074H1.12895C1.20199 14.1074 1.2601 14.0493 1.26176 13.9779C1.29496 12.6963 1.80961 11.496 2.71938 10.5862C3.66069 9.64492 4.91078 9.12695 6.24223 9.12695C7.57367 9.12695 8.82377 9.64492 9.76508 10.5862C10.6748 11.496 11.1895 12.6963 11.2227 13.9779C11.2244 14.051 11.2825 14.1074 11.3555 14.1074H12.3516C12.3693 14.1074 12.3869 14.1039 12.4032 14.097C12.4195 14.0901 12.4343 14.08 12.4467 14.0674C12.4591 14.0547 12.4688 14.0396 12.4753 14.0231C12.4818 14.0066 12.4849 13.989 12.4844 13.9713C12.4678 13.1777 12.3035 12.4058 11.9947 11.677ZM6.24223 7.86523C5.48022 7.86523 4.76303 7.56807 4.22348 7.02852C3.68393 6.48897 3.38676 5.77178 3.38676 5.00977C3.38676 4.24775 3.68393 3.53057 4.22348 2.99102C4.76303 2.45146 5.48022 2.1543 6.24223 2.1543C7.00424 2.1543 7.72143 2.45146 8.26098 2.99102C8.80053 3.53057 9.0977 4.24775 9.0977 5.00977C9.0977 5.77178 8.80053 6.48897 8.26098 7.02852C7.72143 7.56807 7.00424 7.86523 6.24223 7.86523Z" fill="#4F4F4F"/>
</svg>
