<svg width="20" height="15" viewBox="0 0 20 15" fill="none" xmlns="http://www.w3.org/2000/svg">
<path d="M2.70361 10.4627C2.72425 10.4417 2.74858 10.4409 2.76944 10.4627C2.85787 10.5558 2.95346 10.6405 3.05232 10.721C3.06774 10.7341 3.08339 10.7471 3.10033 10.7579C3.64696 11.1861 4.33134 11.4286 5.03875 11.4286C5.89671 11.4286 6.72405 11.0765 7.30805 10.4625C7.32847 10.4413 7.35302 10.4411 7.37345 10.4627C7.95745 11.0765 8.78478 11.4286 9.64275 11.4286C10.5007 11.4286 11.3281 11.0765 11.9118 10.4627C11.9331 10.4411 11.9577 10.4419 11.9777 10.4627C12.5617 11.0765 13.389 11.4286 14.247 11.4286C14.718 11.4286 15.1779 11.3192 15.5953 11.1219C15.6146 11.1145 15.6344 11.1092 15.6529 11.0988C15.6609 11.0943 15.6674 11.0882 15.6753 11.0831C15.987 10.9248 16.2736 10.7178 16.5165 10.4625C16.5369 10.4413 16.5615 10.4411 16.5819 10.4627C17.1659 11.0765 17.9932 11.4286 18.8512 11.4286C19.091 11.4286 19.2857 11.2383 19.2857 11.0038C19.2857 10.7694 19.091 10.5791 18.8512 10.5791C18.2246 10.5791 17.6445 10.3324 17.2182 9.88448C17.0475 9.7046 16.8035 9.60139 16.5491 9.60139C16.2947 9.60139 16.0507 9.7046 15.8799 9.88426C15.7904 9.97834 15.6929 10.0614 15.591 10.1372C14.6741 8.55402 12.4335 4.60554 11.9312 3.71977L15.1569 3.08565C15.9668 2.91257 16.5115 2.14806 16.3974 1.34596C16.3375 0.923571 16.0961 0.538343 15.7354 0.288603C15.3704 0.0361025 14.93 -0.0556387 14.4851 0.032917L9.52934 1.12064C8.95837 1.23468 8.49778 1.56385 8.23207 2.0474C7.9607 2.54072 7.93507 3.13874 8.16667 3.70044L9.21974 6.03623C9.27188 6.15197 9.22778 6.28852 9.11089 6.35775L3.38929 9.87003C3.21917 9.69993 2.98366 9.60139 2.73685 9.60139C2.48244 9.60139 2.23867 9.70439 2.06747 9.88426C1.6412 10.3324 1.06111 10.5791 0.434524 10.5791C0.194667 10.5791 0 10.7694 0 11.0038C0 11.2383 0.194667 11.4286 0.434524 11.4286C1.29249 11.4286 2.11983 11.0765 2.70361 10.4627ZM9.56693 7.08085C10.0503 6.79522 10.2428 6.19869 10.0151 5.69347L8.96772 3.37043C8.83801 3.05592 8.84909 2.71996 8.99792 2.4494C9.13935 2.19181 9.39007 2.01555 9.71184 1.9512L14.6672 0.863684C14.8655 0.824609 15.0665 0.866233 15.2333 0.981971C15.3991 1.09665 15.5095 1.27185 15.5366 1.46297C15.5886 1.82867 15.3402 2.17694 14.9783 2.25446L11.5408 2.92998C11.3209 2.97692 11.1403 3.1192 11.045 3.32095C10.9505 3.52248 10.9581 3.74971 11.0678 3.94912C11.0969 4.00072 13.7525 8.68526 14.8071 10.508C14.6265 10.5532 14.4395 10.5791 14.2472 10.5791C13.6206 10.5791 13.0405 10.3324 12.614 9.88426C12.443 9.7046 12.1993 9.60139 11.9449 9.60139C11.6907 9.60139 11.4469 9.70439 11.2757 9.88426C10.8494 10.3324 10.2693 10.5791 9.64275 10.5791C9.01616 10.5791 8.43608 10.3324 8.00981 9.88448C7.83904 9.7046 7.59505 9.60139 7.34064 9.60139C7.08622 9.60139 6.84224 9.7046 6.67147 9.88426C6.2452 10.3324 5.66511 10.5791 5.03853 10.5791C4.72828 10.5791 4.42976 10.5182 4.15536 10.4029L9.56693 7.08085Z" fill="#4F4F4F"/>
<path d="M19.5664 13.2894C18.9398 13.2894 18.3597 12.9999 17.9332 12.4744C17.7622 12.2637 17.5185 12.1429 17.2643 12.1429C17.0099 12.1429 16.7661 12.2637 16.5949 12.4744C16.1686 12.9999 15.5885 13.2894 14.9619 13.2894C14.3353 13.2894 13.7552 12.9999 13.329 12.4746C13.1582 12.2637 12.9142 12.1429 12.6598 12.1429C12.4054 12.1429 12.1614 12.2637 11.9906 12.4744C11.5643 12.9999 10.9842 13.2894 10.3576 13.2894C9.73106 13.2894 9.15096 12.9999 8.72447 12.4744C8.55348 12.2637 8.30971 12.1429 8.05551 12.1429C7.80109 12.1429 7.55732 12.2637 7.38612 12.4744C6.95985 12.9999 6.37975 13.2894 5.75316 13.2894C5.12657 13.2894 4.54647 12.9999 4.1202 12.4746C3.94943 12.2637 3.70544 12.1429 3.45102 12.1429C3.1966 12.1429 2.95262 12.2637 2.78185 12.4744C2.35557 12.9999 1.77548 13.2894 1.14888 13.2894C0.909025 13.2894 0.714355 13.5126 0.714355 13.7875C0.714355 14.0625 0.909025 14.2857 1.14888 14.2857C2.00686 14.2857 2.83421 13.8727 3.41821 13.1526C3.43864 13.1277 3.46319 13.1275 3.48361 13.1529C4.06762 13.8727 4.89496 14.2857 5.75294 14.2857C6.61092 14.2857 7.43826 13.8727 8.02205 13.1529C8.04248 13.1282 8.06768 13.1275 8.08788 13.1529C8.67189 13.8727 9.49924 14.2857 10.3572 14.2857C11.2152 14.2857 12.0425 13.8727 12.6265 13.1526C12.647 13.1277 12.6715 13.1275 12.6919 13.1529C13.2759 13.8727 14.1033 14.2857 14.9613 14.2857C15.8192 14.2857 16.6466 13.8727 17.2304 13.1529C17.251 13.1282 17.2758 13.1275 17.2962 13.1529C17.8802 13.8727 18.7076 14.2857 19.5655 14.2857C19.8054 14.2857 20.0001 14.0625 20.0001 13.7875C20.0001 13.5126 19.8063 13.2894 19.5664 13.2894Z" fill="#4F4F4F"/>
<path d="M14.2856 6.7856C14.2856 8.1642 15.4072 9.28571 16.7855 9.28571C18.1641 9.28571 19.2856 8.1642 19.2856 6.7856C19.2856 5.40722 18.1641 4.28571 16.7855 4.28571C15.4072 4.28571 14.2856 5.40722 14.2856 6.7856ZM16.7853 5.22147C17.6478 5.22147 18.3497 5.92329 18.3497 6.7856C18.3497 7.64813 17.6478 8.34995 16.7853 8.34995C15.9228 8.34995 15.2212 7.64813 15.2212 6.7856C15.2214 5.92329 15.923 5.22147 16.7853 5.22147Z" fill="#4F4F4F"/>
</svg>
