<svg width="14" height="19" viewBox="0 0 14 19" fill="none" xmlns="http://www.w3.org/2000/svg">
<path d="M1.42008 1.90985C2.42877 1.90985 3.43747 1.90985 4.44619 1.90985C4.93202 1.90985 5.43101 1.88358 5.91404 1.94417C5.85093 1.93583 5.7878 1.9275 5.72469 1.91916C6.08833 1.96724 6.44264 2.0617 6.78107 2.20114C6.72435 2.1776 6.66763 2.15405 6.61091 2.13054C6.93234 2.26545 7.23424 2.43885 7.5119 2.64755C7.46385 2.61105 7.41578 2.57455 7.36773 2.53803C7.64925 2.75249 7.90125 3.00027 8.11936 3.27707C8.08224 3.22982 8.04512 3.18257 8.00797 3.13533C8.22022 3.40834 8.39657 3.70519 8.53378 4.02125C8.50983 3.96548 8.4859 3.90971 8.46198 3.85396C8.60379 4.1867 8.69985 4.5351 8.74876 4.89267C8.74027 4.83059 8.73181 4.76853 8.72332 4.70648C8.76883 5.0574 8.76883 5.41154 8.72332 5.76246C8.73181 5.70038 8.74027 5.63833 8.74876 5.57627C8.69985 5.93384 8.60379 6.28221 8.46198 6.61498C8.48592 6.55921 8.50985 6.50344 8.53378 6.44767C8.39657 6.76373 8.22022 7.06058 8.00797 7.33359C8.0451 7.28635 8.08222 7.2391 8.11936 7.19185C7.90125 7.46867 7.64925 7.71643 7.36773 7.93089C7.41578 7.89439 7.46385 7.85789 7.5119 7.82137C7.23424 8.03007 6.93234 8.20345 6.61091 8.33838C6.66763 8.31485 6.72435 8.2913 6.78107 8.26778C6.44264 8.40722 6.08833 8.50168 5.72469 8.54976C5.78782 8.54142 5.85093 8.53309 5.91404 8.52475C5.49109 8.57778 5.05808 8.55907 4.63253 8.55907C3.9886 8.55907 3.34469 8.55907 2.70075 8.55907C2.27386 8.55907 1.84696 8.55907 1.42008 8.55907C1.03178 8.55907 0.707764 8.87767 0.707764 9.25947C0.707764 9.38286 0.707764 9.50625 0.707764 9.62966C0.707764 9.8421 0.787095 10.0073 0.925874 10.1653C0.969752 10.2153 1.01365 10.2653 1.05751 10.3152C1.27686 10.565 1.49623 10.8148 1.71558 11.0646C2.48592 11.9418 3.25628 12.819 4.02661 13.6962C4.86818 14.6545 5.70977 15.6128 6.55134 16.5711C7.01898 17.1036 7.48662 17.6361 7.95429 18.1686C7.96469 18.1805 7.97507 18.1923 7.98545 18.2041C8.2394 18.4933 8.73341 18.4592 8.99282 18.2041C9.1258 18.0734 9.20144 17.8939 9.20144 17.7088C9.20144 17.5125 9.11987 17.3583 8.99282 17.2136C8.62297 16.7924 8.25313 16.3713 7.88328 15.9502C7.07051 15.0247 6.25774 14.0992 5.44499 13.1737C4.63444 12.2507 3.82391 11.3277 3.01338 10.4048C2.65016 9.99118 2.28696 9.57759 1.92374 9.16401C1.99329 9.32911 2.06283 9.49418 2.13237 9.65927C2.13237 9.52602 2.13237 9.39274 2.13237 9.25947C1.89493 9.49294 1.6575 9.72639 1.42006 9.95986C2.42875 9.95986 3.43745 9.95986 4.44617 9.95986C4.83161 9.95986 5.22025 9.97323 5.60542 9.9537C6.11853 9.92768 6.63282 9.82817 7.10981 9.63894C7.63135 9.43202 8.08891 9.16213 8.52037 8.80623C9.28102 8.17873 9.82891 7.27316 10.0537 6.32474C10.1722 5.82486 10.2134 5.29938 10.158 4.78863C10.0968 4.22479 9.9496 3.70823 9.70924 3.19294C9.29775 2.31072 8.55566 1.55957 7.69366 1.09373C6.95872 0.696522 6.1372 0.509155 5.30127 0.509155C4.18882 0.509155 3.07637 0.509155 1.96392 0.509155C1.78264 0.509155 1.60137 0.509155 1.42008 0.509155C1.03178 0.509155 0.707764 0.827756 0.707764 1.20955C0.707764 1.59135 1.03178 1.90985 1.42008 1.90985Z" fill="#333333"/>
<path d="M12.5406 4.66821C11.9866 4.66821 11.4326 4.66821 10.8787 4.66821C9.64699 4.66821 8.41536 4.66821 7.18371 4.66821C5.91978 4.66821 4.65585 4.66821 3.39194 4.66821C2.74115 4.66821 2.09036 4.66821 1.43959 4.66821C1.43308 4.66821 1.42657 4.66821 1.42008 4.66821C1.03178 4.66821 0.707764 4.98681 0.707764 5.36861C0.707764 5.75041 1.03178 6.06901 1.42008 6.06901C1.97405 6.06901 2.52803 6.06901 3.082 6.06901C4.31365 6.06901 5.54531 6.06901 6.77696 6.06901C8.04088 6.06901 9.30479 6.06901 10.5687 6.06901C11.2195 6.06901 11.8703 6.06901 12.5211 6.06901C12.5276 6.06901 12.5341 6.06901 12.5406 6.06901C12.9289 6.06901 13.2529 5.75041 13.2529 5.36861C13.2529 4.98681 12.9289 4.66821 12.5406 4.66821Z" fill="#333333"/>
<path d="M1.42004 1.90983C1.97401 1.90983 2.52799 1.90983 3.08196 1.90983C4.31361 1.90983 5.54526 1.90983 6.77691 1.90983C8.04084 1.90983 9.30475 1.90983 10.5687 1.90983C11.2195 1.90983 11.8703 1.90983 12.521 1.90983C12.5275 1.90983 12.5341 1.90983 12.5406 1.90983C12.9289 1.90983 13.2529 1.59123 13.2529 1.20943C13.2529 0.827634 12.9289 0.509033 12.5406 0.509033C11.9866 0.509033 11.4326 0.509033 10.8787 0.509033C9.64699 0.509033 8.41536 0.509033 7.18371 0.509033C5.91978 0.509033 4.65585 0.509033 3.39194 0.509033C2.74115 0.509033 2.09036 0.509033 1.43959 0.509033C1.43308 0.509033 1.42657 0.509033 1.42008 0.509033C1.03178 0.509033 0.707764 0.827634 0.707764 1.20943C0.707764 1.59123 1.03174 1.90983 1.42004 1.90983Z" fill="#333333"/>
</svg>
