<svg width="18" height="15" viewBox="0 0 18 15" fill="none" xmlns="http://www.w3.org/2000/svg">
<path d="M0 4.14154V3.50854C0.1035 3.17854 0.3 2.91829 0.63 2.81554C0.9165 2.72554 1.2195 2.66854 1.5195 2.62504C1.713 2.59879 1.91325 2.61829 2.1165 2.61829V1.94254C2.1165 1.17979 2.41275 0.720036 3.1395 0.492786C3.66263 0.330627 4.19892 0.214436 4.74225 0.145536C5.94225 -0.010464 7.155 -0.00746402 8.36475 0.00603598C9.8175 0.022536 11.271 0.055536 12.7238 0.108786C13.377 0.132786 14.0235 0.255786 14.6438 0.479286C15.3765 0.738786 15.69 1.18879 15.6803 1.95904C15.6765 2.16904 15.6803 2.37529 15.6803 2.61904C15.8963 2.61904 16.0965 2.60179 16.293 2.62204C16.923 2.69179 17.556 2.76829 17.796 3.50479V4.13854C17.769 4.36804 17.763 4.60504 17.7158 4.82854C17.6409 5.19602 17.5475 5.55948 17.436 5.91754C17.4123 6.01087 17.354 6.09174 17.273 6.1438C17.192 6.19586 17.0943 6.21525 16.9995 6.19804C16.8893 6.18454 16.776 6.19429 16.6665 6.19429C16.41 6.19429 16.3463 6.13129 16.3463 5.86429C16.3463 5.14129 16.3433 4.42129 16.3433 3.69829C16.3433 3.32179 16.2833 3.26479 15.9 3.25879H15.693C15.6863 3.32479 15.6803 3.38179 15.6803 3.43504C15.6803 6.33454 15.6803 9.23404 15.6833 12.1298C15.6833 12.2295 15.6998 12.3368 15.6765 12.4298C15.63 12.5963 15.5865 12.7763 15.4898 12.9165C15.2963 13.203 14.9768 13.329 14.6633 13.443C14.5733 13.476 14.547 13.5128 14.547 13.6065C14.5538 13.923 14.547 14.2395 14.547 14.556C14.547 14.7555 14.4795 14.856 14.2935 14.9123C14.1841 14.951 14.0697 14.9737 13.9538 14.9798C13.5203 14.9888 13.0875 14.9888 12.657 14.9828C12.5294 14.9765 12.403 14.9551 12.2805 14.919C12.0675 14.859 12.0038 14.769 12.0038 14.5463V13.8488H5.80875C5.80875 14.0963 5.802 14.3288 5.81175 14.5628C5.81925 14.7495 5.7255 14.859 5.56575 14.9093C5.45059 14.9491 5.33042 14.9726 5.20875 14.979C4.80525 14.9888 4.39875 14.9925 3.996 14.9865C3.84163 14.9799 3.68846 14.9562 3.53925 14.916C3.336 14.8628 3.26925 14.7623 3.26925 14.556C3.26925 14.3295 3.249 14.0993 3.27225 13.8728C3.29925 13.596 3.22275 13.4498 2.93925 13.3493C2.37975 13.1565 2.1195 12.7598 2.1225 12.1298C2.14275 9.28729 2.133 6.44479 2.133 3.60229V3.25204C1.97625 3.26179 1.836 3.26479 1.6995 3.28204C1.53975 3.30154 1.46325 3.39154 1.467 3.56479C1.476 3.99829 1.47 4.43179 1.47 4.86454C1.47 5.19829 1.47 5.53129 1.46625 5.86429C1.46625 6.12754 1.40325 6.19129 1.14675 6.19429C1.0395 6.19429 0.933 6.18454 0.8295 6.19804C0.5895 6.22804 0.4395 6.10804 0.36675 5.90479C0.267442 5.62939 0.187252 5.34747 0.12675 5.06104C0.057 4.76104 0.03675 4.45129 0 4.14154H0ZM8.9115 1.97254C7.65525 2.00254 6.39525 2.02279 5.13525 2.07004C4.60875 2.08954 4.08225 2.14954 3.5925 2.36629C3.3495 2.47279 3.216 2.64304 3.219 2.93254C3.2295 4.70554 3.2325 6.47479 3.219 8.24779C3.216 8.57779 3.3525 8.78479 3.6165 8.93779C3.7095 8.99479 3.80925 9.05479 3.91275 9.08479C4.41225 9.22429 4.90875 9.39154 5.41875 9.48079C6.78825 9.72454 8.175 9.78454 9.56475 9.74404C10.7378 9.71104 11.901 9.61429 13.047 9.35404C13.464 9.25804 13.8735 9.14104 14.2365 8.90404C14.46 8.75779 14.577 8.57104 14.577 8.28454C14.5653 6.5238 14.5653 4.76302 14.577 3.00229C14.58 2.60254 14.4233 2.45629 14.127 2.33629C13.6568 2.14879 13.1573 2.08879 12.6608 2.07304C11.4105 2.02579 10.161 2.00254 8.91075 1.97254H8.9115ZM8.898 0.579036C8.1585 0.579036 7.422 0.582036 6.68175 0.579036C6.132 0.576036 6.159 0.582036 6.165 1.09879C6.16875 1.35904 6.21825 1.40854 6.4755 1.40854H11.3408C11.5778 1.40854 11.631 1.35229 11.634 1.11604V0.865536C11.634 0.639036 11.5778 0.582036 11.3505 0.582036C10.5308 0.579036 9.71475 0.579036 8.898 0.579036ZM5.22525 12.2595C5.229 12.246 5.23275 12.237 5.23275 12.2228C5.4255 12.21 5.619 12.2003 5.81175 12.183C5.9355 12.1733 5.982 12.093 5.99925 11.97C6.045 11.6168 5.895 11.3663 5.622 11.1563C5.17952 10.8116 4.67182 10.56 4.1295 10.4168C3.91541 10.368 3.6951 10.3523 3.47625 10.3703C3.28875 10.3838 3.22575 10.4903 3.22275 10.68C3.22275 10.9238 3.23625 11.1698 3.219 11.4135C3.20625 11.6363 3.30225 11.7863 3.486 11.8898C3.5985 11.9535 3.72225 12.0195 3.849 12.0435C4.30575 12.126 4.7655 12.1898 5.22525 12.2595ZM12.5535 12.2228C12.7973 12.2063 13.044 12.2198 13.281 12.1733C13.622 12.1087 13.9573 12.0171 14.2838 11.8995C14.4863 11.8268 14.5935 11.6498 14.5733 11.4068C14.5568 11.187 14.5703 10.9635 14.5703 10.74C14.5703 10.4603 14.4765 10.3575 14.2005 10.3433C14.1223 10.3384 14.0439 10.3419 13.9665 10.3538C13.26 10.47 12.6465 10.7798 12.0908 11.2238C11.841 11.4233 11.7608 11.6798 11.7975 11.9895C11.811 12.1065 11.871 12.1733 11.9873 12.183C12.174 12.1995 12.3608 12.21 12.5535 12.2228Z" fill="#4F4F4F"/>
</svg>
