<svg width="12" height="12" viewBox="0 0 12 12" fill="none" xmlns="http://www.w3.org/2000/svg">
<path d="M8.58059 9.85067H6.8343C6.91966 9.72292 6.96874 9.57438 6.97629 9.42092C6.98384 9.26746 6.94958 9.11482 6.87718 8.9793C6.80477 8.84378 6.69693 8.73046 6.56516 8.65144C6.4334 8.57241 6.28264 8.53064 6.129 8.53058H4.92771L2.8778 7.97237C2.8521 7.96489 2.8251 7.96296 2.79859 7.96672L1.88584 8.11947V7.96483C1.88584 7.91481 1.86598 7.86685 1.83061 7.83148C1.79524 7.79611 1.74728 7.77625 1.69726 7.77625H0.188584C0.138569 7.77625 0.0906016 7.79611 0.0552351 7.83148C0.0198687 7.86685 0 7.91481 0 7.96483V11.3594C0 11.4094 0.0198687 11.4573 0.0552351 11.4927C0.0906016 11.5281 0.138569 11.5479 0.188584 11.5479H1.69726C1.74728 11.5479 1.79524 11.5281 1.83061 11.4927C1.86598 11.4573 1.88584 11.4094 1.88584 11.3594V11.0802L2.9438 11.5328C2.96707 11.5427 2.99208 11.5479 3.01735 11.5479H8.58059C8.80566 11.5479 9.02152 11.4585 9.18067 11.2994C9.33982 11.1402 9.42922 10.9244 9.42922 10.6993C9.42922 10.4742 9.33982 10.2584 9.18067 10.0992C9.02152 9.94008 8.80566 9.85067 8.58059 9.85067ZM1.50868 11.1708H0.377169V8.15341H1.50868V11.1708ZM8.58059 11.1708H3.05695L1.88584 10.6691V8.5023L2.81934 8.34577L4.85416 8.90021C4.86993 8.90561 4.88653 8.90816 4.9032 8.90775H6.129C6.25403 8.90775 6.37395 8.95742 6.46237 9.04584C6.55079 9.13426 6.60046 9.25417 6.60046 9.37921C6.60046 9.50425 6.55079 9.62417 6.46237 9.71259C6.37395 9.801 6.25403 9.85067 6.129 9.85067H4.33744V10.2278H8.58059C8.70563 10.2278 8.82555 10.2775 8.91397 10.3659C9.00238 10.4543 9.05206 10.5743 9.05206 10.6993C9.05206 10.8243 9.00238 10.9443 8.91397 11.0327C8.82555 11.1211 8.70563 11.1708 8.58059 11.1708Z" fill="#219653"/>
<path d="M11.1267 5.89038H10.7439C10.6976 4.66431 10.2106 3.49609 9.37221 2.60023C8.53386 1.70437 7.40047 1.14101 6.18016 1.01359C6.20898 0.945591 6.22374 0.872458 6.22353 0.798603C6.22353 0.648555 6.16393 0.504654 6.05783 0.398554C5.95173 0.292455 5.80783 0.232849 5.65778 0.232849C5.50773 0.232849 5.36383 0.292455 5.25773 0.398554C5.15163 0.504654 5.09202 0.648555 5.09202 0.798603C5.09182 0.872458 5.10657 0.945591 5.1354 1.01359C3.91509 1.14101 2.7817 1.70437 1.94335 2.60023C1.105 3.49609 0.617955 4.66431 0.571655 5.89038H0.188829C0.138813 5.89038 0.0908457 5.91025 0.0554792 5.94562C0.0201128 5.98098 0.000244141 6.02895 0.000244141 6.07897V6.64472C0.000691857 6.79463 0.0604416 6.93827 0.166444 7.04427C0.272447 7.15028 0.416088 7.21003 0.565998 7.21047H10.7496C10.8995 7.21003 11.0431 7.15028 11.1491 7.04427C11.2551 6.93827 11.3149 6.79463 11.3153 6.64472V6.07897C11.3153 6.02895 11.2954 5.98098 11.2601 5.94562C11.2247 5.91025 11.1767 5.89038 11.1267 5.89038ZM5.65778 0.610018C5.69508 0.610018 5.73154 0.621078 5.76255 0.6418C5.79356 0.662522 5.81773 0.691975 5.83201 0.726434C5.84628 0.760894 5.85002 0.798812 5.84274 0.835394C5.83546 0.871975 5.8175 0.905578 5.79113 0.931952C5.76475 0.958326 5.73115 0.976287 5.69457 0.983563C5.65799 0.99084 5.62007 0.987105 5.58561 0.972832C5.55115 0.958558 5.5217 0.934387 5.50098 0.903374C5.48025 0.872362 5.46919 0.835901 5.46919 0.798603C5.46919 0.748587 5.48906 0.70062 5.52443 0.665253C5.5598 0.629887 5.60776 0.610018 5.65778 0.610018ZM5.65778 1.36436C6.87493 1.36573 8.04446 1.83742 8.92199 2.68086C9.79953 3.52431 10.3172 4.67424 10.3667 5.89038H0.948824C0.998397 4.67424 1.51603 3.52431 2.39356 2.68086C3.27109 1.83742 4.44063 1.36573 5.65778 1.36436ZM10.9381 6.64472C10.9381 6.69474 10.9183 6.7427 10.8829 6.77807C10.8475 6.81344 10.7996 6.83331 10.7496 6.83331H0.565998C0.515982 6.83331 0.468015 6.81344 0.432648 6.77807C0.397282 6.7427 0.377413 6.69474 0.377413 6.64472V6.26755H10.9381V6.64472Z" fill="#219653"/>
<path d="M0.943087 9.09632C1.15139 9.09632 1.32026 8.92745 1.32026 8.71915C1.32026 8.51084 1.15139 8.34198 0.943087 8.34198C0.734782 8.34198 0.565918 8.51084 0.565918 8.71915C0.565918 8.92745 0.734782 9.09632 0.943087 9.09632Z" fill="#219653"/>
</svg>
