<svg width="14" height="14" viewBox="0 0 14 14" fill="none" xmlns="http://www.w3.org/2000/svg">
<path d="M10.6167 11.9H8.456C8.56162 11.7419 8.62233 11.5581 8.63168 11.3683C8.64102 11.1784 8.59864 10.9895 8.50905 10.8219C8.41946 10.6542 8.28603 10.514 8.123 10.4162C7.95996 10.3184 7.77344 10.2667 7.58333 10.2667H6.097L3.56067 9.576C3.52887 9.56673 3.49546 9.56435 3.46267 9.56899L2.33333 9.75799V9.56666C2.33333 9.50478 2.30875 9.44543 2.26499 9.40167C2.22123 9.35791 2.16188 9.33333 2.1 9.33333H0.233333C0.171449 9.33333 0.1121 9.35791 0.0683417 9.40167C0.0245833 9.44543 0 9.50478 0 9.56666V13.7667C0 13.8285 0.0245833 13.8879 0.0683417 13.9317C0.1121 13.9754 0.171449 14 0.233333 14H2.1C2.16188 14 2.22123 13.9754 2.26499 13.9317C2.30875 13.8879 2.33333 13.8285 2.33333 13.7667V13.4213L3.64233 13.9813C3.67112 13.9935 3.70206 13.9999 3.73333 14H10.6167C10.8951 14 11.1622 13.8894 11.3591 13.6925C11.556 13.4955 11.6667 13.2285 11.6667 12.95C11.6667 12.6715 11.556 12.4044 11.3591 12.2075C11.1622 12.0106 10.8951 11.9 10.6167 11.9ZM1.86667 13.5333H0.466667V9.79999H1.86667V13.5333ZM10.6167 13.5333H3.78233L2.33333 12.9127V10.2317L3.48833 10.038L6.006 10.724C6.02551 10.7307 6.04605 10.7338 6.06667 10.7333H7.58333C7.73804 10.7333 7.88642 10.7948 7.99581 10.9042C8.10521 11.0136 8.16667 11.162 8.16667 11.3167C8.16667 11.4714 8.10521 11.6197 7.99581 11.7291C7.88642 11.8385 7.73804 11.9 7.58333 11.9H5.36667V12.3667H10.6167C10.7714 12.3667 10.9198 12.4281 11.0291 12.5375C11.1385 12.6469 11.2 12.7953 11.2 12.95C11.2 13.1047 11.1385 13.2531 11.0291 13.3625C10.9198 13.4719 10.7714 13.5333 10.6167 13.5333Z" fill="#4F4F4F"/>
<path d="M13.7667 7H13.293C13.2357 5.483 12.6331 4.03757 11.5958 2.92914C10.5585 1.8207 9.15621 1.12366 7.64633 0.966C7.682 0.881867 7.70026 0.791381 7.7 0.7C7.7 0.514348 7.62625 0.336301 7.49497 0.205025C7.3637 0.0737498 7.18565 0 7 0C6.81435 0 6.6363 0.0737498 6.50503 0.205025C6.37375 0.336301 6.3 0.514348 6.3 0.7C6.29974 0.791381 6.318 0.881867 6.35367 0.966C4.84379 1.12366 3.44146 1.8207 2.40418 2.92914C1.3669 4.03757 0.764287 5.483 0.707 7H0.233333C0.171449 7 0.1121 7.02458 0.0683417 7.06834C0.0245833 7.1121 0 7.17145 0 7.23333V7.93333C0.000553954 8.11881 0.0744816 8.29654 0.205637 8.4277C0.336793 8.55885 0.514519 8.63278 0.7 8.63333H13.3C13.4855 8.63278 13.6632 8.55885 13.7944 8.4277C13.9255 8.29654 13.9994 8.11881 14 7.93333V7.23333C14 7.17145 13.9754 7.1121 13.9317 7.06834C13.8879 7.02458 13.8286 7 13.7667 7ZM7 0.466667C7.04615 0.466667 7.09126 0.480351 7.12963 0.50599C7.168 0.531629 7.19791 0.568071 7.21557 0.610707C7.23323 0.653343 7.23785 0.700259 7.22885 0.745521C7.21985 0.790783 7.19762 0.832359 7.16499 0.864992C7.13236 0.897624 7.09078 0.919847 7.04552 0.92885C7.00026 0.937853 6.95334 0.933232 6.91071 0.915572C6.86807 0.897911 6.83163 0.868005 6.80599 0.829633C6.78035 0.791262 6.76667 0.746149 6.76667 0.7C6.76667 0.638116 6.79125 0.578767 6.83501 0.535008C6.87877 0.49125 6.93812 0.466667 7 0.466667ZM7 1.4C8.50597 1.4017 9.95302 1.98532 11.0388 3.0289C12.1245 4.07248 12.765 5.49528 12.8263 7H1.17367C1.235 5.49528 1.87546 4.07248 2.96122 3.0289C4.04698 1.98532 5.49403 1.4017 7 1.4ZM13.5333 7.93333C13.5333 7.99522 13.5087 8.05457 13.465 8.09832C13.4212 8.14208 13.3619 8.16667 13.3 8.16667H0.7C0.638116 8.16667 0.578767 8.14208 0.535008 8.09832C0.49125 8.05457 0.466667 7.99522 0.466667 7.93333V7.46667H13.5333V7.93333Z" fill="#4F4F4F"/>
<path d="M1.16686 10.9667C1.42459 10.9667 1.63353 10.7577 1.63353 10.5C1.63353 10.2423 1.42459 10.0333 1.16686 10.0333C0.909129 10.0333 0.700195 10.2423 0.700195 10.5C0.700195 10.7577 0.909129 10.9667 1.16686 10.9667Z" fill="#4F4F4F"/>
</svg>
