<svg width="12" height="10" viewBox="0 0 12 10" fill="none" xmlns="http://www.w3.org/2000/svg">
<path d="M10.6085 2.05179H6.13025L7.24164 0.509447C7.27831 0.451966 7.28973 0.383713 7.27354 0.31871C7.25736 0.253707 7.2148 0.196889 7.15461 0.159927C7.09442 0.122966 7.02118 0.108667 6.94991 0.119968C6.87865 0.131269 6.81479 0.167312 6.77144 0.220693L5.67639 1.741L4.54489 0.169669C4.52538 0.139087 4.49931 0.112498 4.46828 0.0915257C4.43725 0.070554 4.4019 0.0556407 4.36441 0.0476978C4.32692 0.0397549 4.28806 0.0389493 4.25022 0.0453302C4.21238 0.0517112 4.17634 0.0651446 4.14432 0.0848091C4.1123 0.104474 4.08496 0.129956 4.06398 0.159698C4.043 0.18944 4.02882 0.222817 4.0223 0.257787C4.01578 0.292757 4.01707 0.328587 4.02607 0.363084C4.03508 0.397582 4.05162 0.430022 4.07468 0.458422L5.22253 2.05179H0.706563C0.519389 2.05179 0.339862 2.12029 0.207392 2.24226C0.0749213 2.36423 0.000333051 2.5297 0 2.70235V7.78511C0 7.95796 0.0744413 8.12373 0.206948 8.24595C0.272558 8.30647 0.350449 8.35447 0.436173 8.38723C0.521897 8.41998 0.613776 8.43684 0.706563 8.43684H5.37466V9.21844H2.86774C2.82909 9.21606 2.79032 9.22103 2.75384 9.23303C2.71736 9.24504 2.68394 9.26383 2.65565 9.28824C2.62736 9.31265 2.60481 9.34215 2.58939 9.37493C2.57397 9.40771 2.56602 9.44306 2.56602 9.47878C2.56602 9.51451 2.57397 9.54986 2.58939 9.58264C2.60481 9.61542 2.62736 9.64492 2.65565 9.66933C2.68394 9.69374 2.71736 9.71253 2.75384 9.72453C2.79032 9.73654 2.82909 9.74151 2.86774 9.73913H8.44733C8.48598 9.74151 8.52474 9.73654 8.56123 9.72453C8.59771 9.71253 8.63113 9.69374 8.65942 9.66933C8.68771 9.64492 8.71026 9.61542 8.72568 9.58264C8.7411 9.54986 8.74905 9.51451 8.74905 9.47878C8.74905 9.44306 8.7411 9.40771 8.72568 9.37493C8.71026 9.34215 8.68771 9.31265 8.65942 9.28824C8.63113 9.26383 8.59771 9.24504 8.56123 9.23303C8.52474 9.22103 8.48598 9.21606 8.44733 9.21844H5.94041V8.43568H10.6085C10.7957 8.43568 10.9752 8.36717 11.1077 8.2452C11.2401 8.12323 11.3147 7.95776 11.3151 7.78511V2.70235C11.3147 2.5297 11.2401 2.36423 11.1077 2.24226C10.9752 2.12029 10.7957 2.05179 10.6085 2.05179ZM10.7493 7.78511C10.7483 7.81895 10.7331 7.8511 10.7068 7.87471C10.6805 7.89832 10.6452 7.91152 10.6085 7.91151H0.706563C0.669218 7.91151 0.633403 7.89783 0.606996 7.87347C0.580589 7.84911 0.565753 7.81608 0.565753 7.78163V2.70235C0.567057 2.66871 0.582465 2.63686 0.608732 2.6135C0.634999 2.59013 0.670073 2.57709 0.706563 2.57711H10.6085C10.6458 2.57711 10.6817 2.59079 10.7081 2.61515C10.7345 2.63951 10.7493 2.67254 10.7493 2.70699V7.78511Z" fill="#219653"/>
</svg>
