<svg width="21" height="21" viewBox="0 0 21 21" fill="none" xmlns="http://www.w3.org/2000/svg">
<path fill-rule="evenodd" clip-rule="evenodd" d="M12.0917 2.72155C11.6435 0.424198 8.35666 0.424198 7.90843 2.72155C7.6357 4.11951 6.09474 4.8616 4.83172 4.20321C2.75614 3.12125 0.706805 5.69104 2.2235 7.47382C3.14643 8.55866 2.76584 10.2261 1.46361 10.8031C-0.676396 11.7512 0.0550046 14.9557 2.39448 14.8815C3.81808 14.8363 4.88446 16.1735 4.52363 17.5513C3.93065 19.8156 6.89203 21.2418 8.29266 19.3664C9.14486 18.2252 10.8553 18.2252 11.7075 19.3664C13.1081 21.2418 16.0695 19.8156 15.4765 17.5513C15.1157 16.1735 16.1821 14.8363 17.6057 14.8815C19.9452 14.9557 20.6766 11.7512 18.5365 10.8031C17.2343 10.2261 16.8537 8.55866 17.7767 7.47382C19.2934 5.69104 17.244 3.12125 15.1684 4.20321C13.9054 4.8616 12.3645 4.11951 12.0917 2.72155ZM10.0001 14.0001C11.657 14.0001 13.0001 12.657 13.0001 11.0001C13.0001 9.34321 11.657 8.00011 10.0001 8.00011C8.34316 8.00011 7.00006 9.34321 7.00006 11.0001C7.00006 12.657 8.34316 14.0001 10.0001 14.0001Z" fill="#333333"/>
</svg>
