<svg width="16" height="15" viewBox="0 0 16 15" fill="none" xmlns="http://www.w3.org/2000/svg">
<path d="M11.2536 13.9279L11.2564 13.9298C11.4494 14.061 11.6871 14.135 11.9353 14.1363C12.1833 14.1348 12.4208 14.0606 12.6134 13.9294L12.621 13.9243L12.621 13.9243C12.816 13.7967 12.9535 13.6198 13.022 13.4254C13.0903 13.2317 13.0891 13.0243 13.0184 12.8311L13.0164 12.8255L13.0164 12.8255L12.1329 10.3191L11.2536 13.9279ZM11.2536 13.9279L8.94105 12.3788M11.2536 13.9279L8.94105 12.3788M8.94105 12.3788C8.94097 12.3788 8.9409 12.3787 8.94083 12.3787C8.66406 12.1924 8.33489 12.0947 8.0007 12.0947C7.66666 12.0947 7.33763 12.1923 7.06094 12.3784M8.94105 12.3788L7.06094 12.3784M7.06094 12.3784C7.06074 12.3786 7.06055 12.3787 7.06035 12.3788L4.74723 13.9272L4.74692 13.9274C4.55257 14.0577 4.31387 14.1306 4.06521 14.1306C3.81655 14.1307 3.57783 14.0579 3.3834 13.9277L3.10516 14.3431L3.3834 13.9277C3.18943 13.7978 3.05231 13.6196 2.98339 13.424C2.91474 13.2291 2.9148 13.0206 2.98356 12.8257L2.98361 12.8255L3.86703 10.3193C3.86709 10.3192 3.86715 10.319 3.86721 10.3188C3.9792 10.0029 3.97958 9.66091 3.86817 9.34473C3.75706 9.02941 3.54304 8.76242 3.26534 8.577C3.26513 8.57685 3.26491 8.57671 3.26469 8.57656L0.951949 7.02739L0.951785 7.02728C0.757771 6.89743 0.620571 6.71929 0.551563 6.52361C0.482831 6.3287 0.482812 6.12019 0.551506 5.92529C0.620478 5.7296 0.757644 5.55144 0.951636 5.42157C1.14609 5.29138 1.38488 5.21866 1.63359 5.21877H1.63381L4.49254 5.21877C4.49265 5.21877 4.49277 5.21877 4.49289 5.21877H4.49326V4.71877M7.06094 12.3784L6.03462 4.16851L6.03456 4.16866L5.563 4.00243M4.49326 4.71877C4.73084 4.71911 4.96244 4.64997 5.15467 4.52124C5.3469 4.39251 5.48988 4.21084 5.563 4.00243M4.49326 4.71877H1.63381M4.49326 4.71877H1.63381M5.563 4.00243L6.03481 4.16797L6.91835 1.66147L6.91841 1.66129C6.9873 1.46562 7.12435 1.28748 7.31827 1.15755L7.04211 0.745406L7.31827 1.15755C7.51265 1.0273 7.75138 0.954468 8.00002 0.954468C8.24865 0.954468 8.48734 1.02729 8.68173 1.15755C8.87565 1.28748 9.0127 1.46562 9.08159 1.66129L9.08166 1.66148L9.96524 4.16797L10.437 4.00243M5.563 4.00243L6.44679 1.49525C6.55328 1.19276 6.76091 0.929143 7.03994 0.742174C7.31897 0.555206 7.65508 0.454468 8.00002 0.454468C8.34496 0.454468 8.68103 0.555206 8.96006 0.742174C9.23909 0.929143 9.44672 1.19276 9.55321 1.49525L10.437 4.00243M10.437 4.00243L9.96548 4.16866L9.96533 4.16825M10.437 4.00243C10.5102 4.21084 10.6531 4.39251 10.8453 4.52124L9.96533 4.16825M9.96533 4.16825C10.0761 4.4836 10.2896 4.75086 10.5671 4.93669C10.8441 5.1222 11.1732 5.21918 11.5071 5.21877L9.96533 4.16825ZM0.673686 7.44281L2.98724 8.99252C3.1798 9.12096 3.32315 9.30249 3.39659 9.5109C3.47003 9.71931 3.46975 9.94382 3.39583 10.1521L0.673686 7.44281ZM0.673686 7.44281C0.394506 7.25596 0.186692 6.99237 0.080024 6.68989C-0.0266435 6.38741 -0.0266776 6.06158 0.0799393 5.75908C0.186556 5.45658 0.394325 5.19297 0.673474 5.00609C0.952623 4.8192 1.28883 4.71861 1.63381 4.71877M0.673686 7.44281L1.63381 4.71877M11.5075 5.21877L14.3662 5.21877H14.3665C14.6151 5.21866 14.8539 5.29138 15.0484 5.42157C15.2424 5.55144 15.3795 5.7296 15.4485 5.92529C15.5172 6.12019 15.5172 6.3287 15.4484 6.52361C15.3794 6.71929 15.2422 6.89743 15.0482 7.02728L15.0481 7.02739L12.7351 8.57668C12.7349 8.57681 12.7348 8.57693 12.7346 8.57705C12.7346 8.57707 12.7345 8.57708 12.7345 8.5771C12.457 8.7626 12.2431 9.02954 12.132 9.34477C12.0207 9.66074 12.0209 10.0025 12.1326 10.3183L11.5075 5.21877Z" stroke="#333333"/>
</svg>
