<svg width="14" height="12" viewBox="0 0 14 12" fill="none" xmlns="http://www.w3.org/2000/svg">
<path d="M13.1258 2.48783H7.58489L8.96 0.579509C9.00537 0.508388 9.0195 0.42394 8.99947 0.343513C8.97944 0.263085 8.92679 0.192785 8.85232 0.147053C8.77785 0.10132 8.68722 0.0836284 8.59905 0.0976112C8.51088 0.111594 8.43186 0.15619 8.37822 0.222238L7.02333 2.10329L5.62333 0.159105C5.59919 0.121267 5.56694 0.0883682 5.52855 0.0624201C5.49015 0.0364719 5.44642 0.0180199 5.40003 0.00819225C5.35364 -0.00163541 5.30557 -0.00263222 5.25875 0.00526288C5.21192 0.013158 5.16734 0.029779 5.12772 0.0541096C5.0881 0.0784403 5.05428 0.109969 5.02832 0.146769C5.00236 0.183568 4.98481 0.224865 4.97675 0.268133C4.96868 0.311402 4.97027 0.355733 4.98141 0.398416C4.99256 0.441099 5.01302 0.481238 5.04156 0.516377L6.46178 2.48783H0.874222C0.642633 2.48783 0.420507 2.57259 0.256603 2.7235C0.0926993 2.87441 0.00041208 3.07915 0 3.29276V9.5816C0 9.79546 0.0921053 10.0006 0.256054 10.1518C0.337233 10.2267 0.433606 10.2861 0.539672 10.3266C0.645737 10.3671 0.759418 10.388 0.874222 10.388H6.65V11.355H3.54822C3.5004 11.3521 3.45243 11.3582 3.40729 11.3731C3.36215 11.388 3.3208 11.4112 3.2858 11.4414C3.2508 11.4716 3.2229 11.5081 3.20382 11.5487C3.18475 11.5892 3.1749 11.633 3.1749 11.6772C3.1749 11.7214 3.18475 11.7651 3.20382 11.8057C3.2229 11.8462 3.2508 11.8827 3.2858 11.9129C3.3208 11.9431 3.36215 11.9664 3.40729 11.9812C3.45243 11.9961 3.5004 12.0022 3.54822 11.9993H10.4518C10.4996 12.0022 10.5476 11.9961 10.5927 11.9812C10.6378 11.9664 10.6792 11.9431 10.7142 11.9129C10.7492 11.8827 10.7771 11.8462 10.7962 11.8057C10.8153 11.7651 10.8251 11.7214 10.8251 11.6772C10.8251 11.633 10.8153 11.5892 10.7962 11.5487C10.7771 11.5081 10.7492 11.4716 10.7142 11.4414C10.6792 11.4112 10.6378 11.388 10.5927 11.3731C10.5476 11.3582 10.4996 11.3521 10.4518 11.355H7.35V10.3865H13.1258C13.3574 10.3865 13.5795 10.3018 13.7434 10.1509C13.9073 9.99995 13.9996 9.79522 14 9.5816V3.29276C13.9996 3.07915 13.9073 2.87441 13.7434 2.7235C13.5795 2.57259 13.3574 2.48783 13.1258 2.48783ZM13.3 9.5816C13.2988 9.62347 13.2799 9.66325 13.2474 9.69246C13.2148 9.72167 13.1712 9.73801 13.1258 9.738H0.874222C0.828016 9.738 0.783701 9.72107 0.751028 9.69093C0.718355 9.66079 0.7 9.61992 0.7 9.5773V3.29276C0.701612 3.25115 0.720677 3.21173 0.753177 3.18282C0.785677 3.15392 0.829074 3.13778 0.874222 3.1378H13.1258C13.172 3.1378 13.2163 3.15473 13.249 3.18487C13.2816 3.21501 13.3 3.25588 13.3 3.2985V9.5816Z" fill="#4F4F4F"/>
</svg>
