<svg width="16" height="16" viewBox="0 0 16 16" fill="none" xmlns="http://www.w3.org/2000/svg">
<path d="M0.871582 8.24487L0.721558 8L0.871582 7.755C0.896729 7.71411 1.50024 6.73999 2.67273 5.76379C4.23218 4.46558 6.06934 3.7793 7.98572 3.7793C9.90161 3.7793 11.7433 4.46521 13.3116 5.76282C14.4908 6.73853 15.1012 7.71191 15.1266 7.75293L15.2798 8L15.1266 8.24707C15.1012 8.28809 14.4908 9.26147 13.3116 10.2372C11.7433 11.5348 9.90161 12.2207 7.98572 12.2207C6.06934 12.2207 4.23218 11.5344 2.67273 10.2362C1.50024 9.26001 0.896729 8.28589 0.871582 8.24487ZM3.29749 9.53625C4.70032 10.6954 6.27771 11.2831 7.98572 11.2831C9.69434 11.2831 11.2769 10.6951 12.6892 9.53516C13.4197 8.9353 13.9149 8.32788 14.1575 8C13.9148 7.67188 13.4196 7.06458 12.6892 6.46472C11.2769 5.30493 9.69446 4.7168 7.98572 4.7168C6.27771 4.7168 4.70044 5.30457 3.29749 6.46362C2.57031 7.06445 2.07935 7.67273 1.84009 8C2.07959 8.32739 2.57043 8.93567 3.29749 9.53625Z" fill="#4F4F4F"/>
<path d="M8.00024 5.18335C9.55334 5.18335 10.8169 6.4469 10.8169 8C10.8169 9.5531 9.55334 10.8167 8.00024 10.8167C6.44714 10.8167 5.18359 9.5531 5.18359 8C5.18359 6.4469 6.44714 5.18335 8.00024 5.18335ZM8.00024 9.87915C9.03638 9.87915 9.87939 9.03613 9.87939 8C9.87939 6.96387 9.03638 6.12085 8.00024 6.12085C6.96411 6.12085 6.12109 6.96387 6.12109 8C6.12109 9.03613 6.96411 9.87915 8.00024 9.87915Z" fill="#4F4F4F"/>
<path d="M15.0625 0.9375H13.1055V0H16V2.85938H15.0625V0.9375Z" fill="#4F4F4F"/>
<path d="M2.89453 0V0.9375H0.9375V2.85938H0V0H2.89453Z" fill="#4F4F4F"/>
<path d="M15.0625 13.1406H16V16H13.1055V15.0625H15.0625V13.1406Z" fill="#4F4F4F"/>
<path d="M0.9375 15.0625H2.89453V16H0V13.1406H0.9375V15.0625Z" fill="#4F4F4F"/>
</svg>
