<svg width="12" height="10" viewBox="0 0 12 10" fill="none" xmlns="http://www.w3.org/2000/svg">
<path d="M11.5403 2.80547C11.4988 2.78197 11.451 2.77323 11.4043 2.78061C11.3575 2.78799 11.3144 2.81107 11.2817 2.84626C10.3949 3.80149 8.76278 5.27733 8.15308 5.1598C7.55796 5.04646 6.55381 2.5477 6.03072 0.809681C6.02799 0.803762 6.02491 0.798018 6.0215 0.792482C6.01578 0.778489 6.00859 0.76518 6.00007 0.752791C5.99272 0.741335 5.98432 0.730628 5.97498 0.720818C5.95451 0.700841 5.93078 0.68472 5.90488 0.673188C5.89909 0.670763 5.89481 0.666132 5.8888 0.664148C5.8828 0.662163 5.87573 0.664148 5.86908 0.662163C5.84016 0.655988 5.81032 0.655988 5.7814 0.662163C5.77497 0.663486 5.76832 0.662163 5.76189 0.664148C5.75546 0.666132 5.75181 0.670763 5.74603 0.673188C5.72008 0.684533 5.69633 0.700593 5.67592 0.720597C5.65654 0.741473 5.64093 0.765742 5.62983 0.792261C5.62642 0.797874 5.62335 0.80369 5.62061 0.809681C5.09731 2.5477 4.09316 5.04646 3.49826 5.1598C2.88985 5.27667 1.2567 3.80171 0.369598 2.8445C0.336943 2.80924 0.293861 2.7861 0.247073 2.77867C0.200285 2.77125 0.152424 2.77996 0.110956 2.80345C0.0694877 2.82694 0.0367459 2.86389 0.017839 2.90853C-0.00106795 2.95318 -0.00507664 3.003 0.00643843 3.05023L1.12657 7.65878H1.10942C1.05256 7.65878 0.998037 7.68202 0.957833 7.72337C0.917629 7.76472 0.895042 7.82081 0.895042 7.87929V9.63032C0.895042 9.6888 0.917629 9.74489 0.957833 9.78624C0.998037 9.82759 1.05256 9.85082 1.10942 9.85082H10.5421C10.599 9.85082 10.6535 9.82759 10.6937 9.78624C10.7339 9.74489 10.7565 9.6888 10.7565 9.63032V7.88017C10.7565 7.82169 10.7339 7.7656 10.6937 7.72425C10.6535 7.6829 10.599 7.65967 10.5421 7.65967H10.5248L11.6449 3.05111C11.6561 3.00403 11.652 2.95446 11.6331 2.91005C11.6142 2.86565 11.5815 2.82889 11.5403 2.80547ZM10.3278 9.4107H1.3238V8.10068H10.3278V9.4107ZM10.0827 7.65967H1.56884L0.610346 3.71638C1.41598 4.51019 2.80817 5.74105 3.5765 5.59331C4.45032 5.42705 5.39294 2.89742 5.82578 1.58674C6.25861 2.89742 7.20124 5.42705 8.07505 5.59331C8.84167 5.73907 10.2356 4.51064 11.0412 3.71638L10.0827 7.65967ZM5.82578 4.90402C5.37558 4.90402 5.02292 5.37193 5.02292 5.9695C5.02292 6.56706 5.37558 7.0352 5.82578 7.0352C6.27597 7.0352 6.62863 6.56706 6.62863 5.9695C6.62863 5.37193 6.27597 4.90402 5.82578 4.90402ZM5.82578 6.59419C5.6264 6.59419 5.45168 6.30224 5.45168 5.9695C5.45168 5.63675 5.6264 5.34503 5.82578 5.34503C6.02515 5.34503 6.19987 5.63675 6.19987 5.9695C6.19987 6.30224 6.02515 6.59419 5.82578 6.59419Z" fill="#219653"/>
</svg>
