<svg width="15" height="12" viewBox="0 0 15 12" fill="none" xmlns="http://www.w3.org/2000/svg">
<path d="M14.2787 2.65762C14.2274 2.62855 14.1682 2.61773 14.1104 2.62686C14.0525 2.63599 13.9992 2.66455 13.9588 2.70809C12.8614 3.88998 10.8421 5.71602 10.0877 5.57061C9.35138 5.43037 8.10895 2.33868 7.46174 0.188253C7.45836 0.180929 7.45455 0.173822 7.45034 0.166972C7.44326 0.149659 7.43436 0.133192 7.42381 0.117863C7.41472 0.103688 7.40432 0.0904415 7.39278 0.0783029C7.36744 0.0535865 7.33808 0.0336396 7.30604 0.0193719C7.29888 0.0163708 7.29357 0.0106415 7.28615 0.00818608C7.27872 0.00573062 7.26997 0.00818612 7.26174 0.00573067C7.22596 -0.00191022 7.18904 -0.00191022 7.15326 0.00573067C7.1453 0.00736764 7.13708 0.00573062 7.12912 0.00818608C7.12116 0.0106415 7.11665 0.0163708 7.10949 0.0193719C7.07739 0.0334086 7.04801 0.0532786 7.02275 0.07803C6.99877 0.10386 6.97945 0.133888 6.96572 0.166699C6.96151 0.173643 6.9577 0.18084 6.95432 0.188253C6.30685 2.33868 5.06442 5.43037 4.32835 5.57061C3.57557 5.7152 1.5549 3.89026 0.457299 2.70591C0.416896 2.66229 0.363591 2.63365 0.305701 2.62446C0.247811 2.61527 0.188592 2.62605 0.137284 2.65512C0.0859763 2.68419 0.0454653 2.7299 0.022072 2.78514C-0.00132136 2.84037 -0.00628127 2.90202 0.0079662 2.96046L1.39389 8.66257H1.37267C1.30233 8.66257 1.23486 8.69131 1.18511 8.74248C1.13537 8.79364 1.10743 8.86304 1.10743 8.93539V11.1019C1.10743 11.1743 1.13537 11.2437 1.18511 11.2948C1.23486 11.346 1.30233 11.3748 1.37267 11.3748H13.0437C13.114 11.3748 13.1815 11.346 13.2312 11.2948C13.281 11.2437 13.3089 11.1743 13.3089 11.1019V8.93649C13.3089 8.86413 13.281 8.79473 13.2312 8.74357C13.1815 8.6924 13.114 8.66366 13.0437 8.66366H13.0222L14.4081 2.96155C14.422 2.9033 14.4169 2.84196 14.3935 2.78702C14.3701 2.73208 14.3297 2.6866 14.2787 2.65762ZM12.7784 10.8302H1.63792V9.20931H12.7784V10.8302ZM12.4752 8.66366H1.9411L0.755174 3.78467C1.75198 4.76685 3.47451 6.28978 4.42517 6.10699C5.50632 5.90127 6.67262 2.77139 7.20816 1.1497C7.7437 2.77139 8.91 5.90127 9.99116 6.10699C10.9397 6.28732 12.6643 4.7674 13.6612 3.78467L12.4752 8.66366ZM7.20816 5.25413C6.65114 5.25413 6.2148 5.83307 6.2148 6.57243C6.2148 7.31179 6.65114 7.89101 7.20816 7.89101C7.76519 7.89101 8.20152 7.31179 8.20152 6.57243C8.20152 5.83307 7.76519 5.25413 7.20816 5.25413ZM7.20816 7.34535C6.96148 7.34535 6.7453 6.98413 6.7453 6.57243C6.7453 6.16073 6.96148 5.79978 7.20816 5.79978C7.45484 5.79978 7.67102 6.16073 7.67102 6.57243C7.67102 6.98413 7.45484 7.34535 7.20816 7.34535Z" fill="#4F4F4F"/>
</svg>
