<svg width="32" height="32" viewBox="0 0 32 32" fill="none" xmlns="http://www.w3.org/2000/svg">
<path d="M13.1914 8.59135C14.3862 6.23624 16.8308 4.62231 19.6524 4.62231C23.6511 4.62231 26.8927 7.86392 26.8927 11.8627C26.8927 14.3983 25.5893 16.6294 23.616 17.9227H13.1914V8.59135Z" fill="#FFCE69"/>
<path d="M13.1914 8.59135C14.3862 6.23624 16.8308 4.62231 19.6524 4.62231C23.6511 4.62231 26.8927 7.86392 26.8927 11.8627C26.8927 14.3983 25.5893 16.6294 23.616 17.9227H13.1914V8.59135Z" fill="#F2C94C"/>
<path d="M19.6523 4.62231C19.4022 4.62231 19.1552 4.63563 18.9116 4.66038C22.5598 5.03387 25.4058 8.11592 25.4058 11.8627C25.4058 14.3983 24.1025 16.6294 22.1292 17.9227H23.616C25.5893 16.6294 26.8927 14.3983 26.8927 11.8627C26.8926 7.86398 23.651 4.62231 19.6523 4.62231Z" fill="#F2994A"/>
<path d="M5.17166 12.897C5.17166 9.98197 7.58338 7.63024 10.5204 7.7283C13.3173 7.82168 15.515 10.1635 15.515 12.9619C15.515 14.0685 16.4121 14.9657 17.5187 14.9657H19.5906C21.8645 14.9657 23.7598 16.7744 23.7893 19.0481C23.8193 21.3582 21.9556 23.2403 19.6523 23.2403H5.23659C2.38493 23.2403 0.0212702 20.9594 0.000145449 18.1079C-0.0211668 15.2336 2.30237 12.897 5.17166 12.897Z" fill="#E0E0E0"/>
<path d="M14.028 12.9618C14.028 14.0684 14.9252 14.9656 16.0318 14.9656H17.5187C16.412 14.9656 15.5149 14.0684 15.5149 12.9618C15.5149 10.1633 13.3172 7.82155 10.5203 7.72817C10.207 7.71767 9.90013 7.73673 9.60107 7.77973C12.1219 8.14679 14.028 10.3558 14.028 12.9618Z" fill="#E0E0E0"/>
<path d="M19.5909 14.9656H18.104C20.3779 14.9656 22.2732 16.7743 22.3027 19.048C22.3326 21.3582 20.4689 23.2403 18.1657 23.2403H19.6526C21.9559 23.2403 23.8195 21.3582 23.7895 19.048C23.76 16.7743 21.8647 14.9656 19.5909 14.9656Z" fill="#E0E0E0"/>
<path d="M19.6645 3.00836C19.4056 3.00836 19.1958 2.79854 19.1958 2.53961V0.468747C19.1958 0.209811 19.4056 0 19.6645 0C19.9235 0 20.1333 0.209811 20.1333 0.468747V2.53961C20.1333 2.79848 19.9235 3.00836 19.6645 3.00836Z" fill="#FFBD61"/>
<path d="M13.0757 5.73767C12.9557 5.73767 12.8357 5.69192 12.7442 5.60042L11.2799 4.13612C11.0968 3.953 11.0968 3.65625 11.2799 3.47319C11.463 3.29019 11.7597 3.29019 11.9428 3.47319L13.4071 4.93743C13.5902 5.12055 13.5902 5.4173 13.4071 5.60036C13.3155 5.69186 13.1956 5.73767 13.0757 5.73767Z" fill="#FFBD61"/>
<path d="M27.7183 20.3805C27.5983 20.3805 27.4783 20.3347 27.3868 20.2432L25.9225 18.7789C25.7394 18.5958 25.7394 18.2991 25.9225 18.116C26.1056 17.933 26.4023 17.933 26.5854 18.116L28.0497 19.5803C28.2328 19.7634 28.2328 20.0602 28.0497 20.2432C27.9582 20.3347 27.8381 20.3805 27.7183 20.3805Z" fill="#FFBD61"/>
<path d="M31.0543 12.3269H28.9834C28.7245 12.3269 28.5146 12.1171 28.5146 11.8582C28.5146 11.5992 28.7245 11.3894 28.9834 11.3894H31.0543C31.3132 11.3894 31.523 11.5992 31.523 11.8582C31.523 12.1171 31.3131 12.3269 31.0543 12.3269Z" fill="#FFBD61"/>
<path d="M26.2539 5.73767C26.134 5.73767 26.014 5.69192 25.9225 5.60042C25.7394 5.4173 25.7394 5.12055 25.9225 4.93749L27.3868 3.47319C27.5699 3.29019 27.8666 3.29019 28.0497 3.47319C28.2328 3.65631 28.2328 3.95306 28.0497 4.13612L26.5854 5.60042C26.4939 5.69186 26.3739 5.73767 26.2539 5.73767Z" fill="#FFBD61"/>
<path d="M8.27466 27.8583C8.20422 27.8583 8.13272 27.8423 8.06535 27.8087C7.83385 27.6928 7.73997 27.4113 7.85572 27.1797L8.89109 25.1089C9.00684 24.8774 9.28827 24.7833 9.52002 24.8993C9.75152 25.0151 9.8454 25.2966 9.72965 25.5282L8.69428 27.5991C8.61215 27.7633 8.44659 27.8583 8.27466 27.8583Z" fill="#EB5757"/>
<path d="M13.4519 27.8582C13.3815 27.8582 13.31 27.8422 13.2426 27.8085C13.0111 27.6927 12.9172 27.4112 13.033 27.1796L14.0684 25.1088C14.1841 24.8773 14.4656 24.7834 14.6973 24.8992C14.9288 25.015 15.0227 25.2965 14.907 25.5281L13.8715 27.599C13.7894 27.7632 13.6238 27.8582 13.4519 27.8582Z" fill="#EB5757"/>
<path d="M15.5227 31.9999C15.4523 31.9999 15.3808 31.9839 15.3134 31.9502C15.0819 31.8344 14.988 31.5529 15.1038 31.3213L16.1391 29.2504C16.2549 29.0189 16.5363 28.925 16.7681 29.0409C16.9996 29.1567 17.0934 29.4382 16.9776 29.6698L15.9423 31.7407C15.8602 31.9049 15.6946 31.9999 15.5227 31.9999Z" fill="#EB5757"/>
<path d="M10.3455 31.9999C10.275 31.9999 10.2035 31.9839 10.1361 31.9502C9.90465 31.8344 9.81077 31.5529 9.92652 31.3213L10.9619 29.2504C11.0776 29.0189 11.3591 28.925 11.5908 29.0409C11.8223 29.1567 11.9162 29.4382 11.8004 29.6698L10.7651 31.7407C10.683 31.9049 10.5174 31.9999 10.3455 31.9999Z" fill="#EB5757"/>
<path d="M18.6291 27.8583C18.5587 27.8583 18.4872 27.8423 18.4198 27.8087C18.1883 27.6928 18.0945 27.4113 18.2102 27.1797L19.2456 25.1089C19.3613 24.8774 19.6428 24.7833 19.8745 24.8993C20.106 25.0151 20.1999 25.2966 20.0841 25.5282L19.0488 27.5991C18.9666 27.7633 18.8011 27.8583 18.6291 27.8583Z" fill="#EB5757"/>
</svg>
