<svg width="15" height="16" viewBox="0 0 15 16" fill="none" xmlns="http://www.w3.org/2000/svg">
<path d="M2.06749 2.01805C0.734248 3.28911 0 4.9965 0 6.81772C0 8.61996 0.734248 10.3274 2.04816 11.6174L2.58919 11.0862C1.41053 9.94793 0.772893 8.43025 0.772893 6.83669C0.772893 5.22415 1.42985 3.72544 2.60851 2.58718C5.04312 0.234779 9.02352 0.25375 11.4388 2.60615C12.6175 3.74441 13.2551 5.26209 13.2551 6.85566C13.2551 8.46819 12.5981 9.9669 11.4195 11.1052L11.9605 11.6553C13.2937 10.3843 14.028 8.67687 14.028 6.85566C14.028 5.05341 13.2937 3.34602 11.9798 2.05599C9.25539 -0.618916 4.81125 -0.618915 2.06749 2.01805Z" fill="#4F4F4F"/>
<path d="M12.2696 6.8177C12.2696 5.45179 11.7286 4.18074 10.7432 3.23219C8.69501 1.24023 5.35225 1.24023 3.30409 3.21321C2.29933 4.16176 1.7583 5.45179 1.7583 6.79873C1.7583 8.16464 2.29933 9.4357 3.28476 10.3843L3.82579 9.85306C2.97561 9.03731 2.51187 7.95596 2.51187 6.79873C2.51187 5.6415 2.97561 4.56015 3.82579 3.7444C5.58412 2.05598 8.4245 2.05598 10.1635 3.76337C11.0137 4.57913 11.4774 5.66047 11.4774 6.8177C11.4774 7.97493 11.0137 9.05628 10.1635 9.87203L10.7045 10.4222C11.7093 9.45467 12.2696 8.18361 12.2696 6.8177Z" fill="#4F4F4F"/>
<path d="M9.33275 9.07524C9.95107 8.46816 10.2989 7.67138 10.2989 6.81769C10.2989 5.96399 9.95107 5.16721 9.33275 4.56014C8.05748 3.32702 5.95135 3.30805 4.67608 4.56014C4.05776 5.16721 3.70996 5.96399 3.70996 6.81769C3.70996 7.67138 4.05776 8.46816 4.67608 9.07524L5.2171 8.54405C4.73404 8.08874 4.48285 7.48167 4.48285 6.83666C4.48285 6.19164 4.75337 5.58457 5.2171 5.12927C6.20254 4.18072 7.80629 4.18072 8.79173 5.12927C9.27479 5.58457 9.52598 6.19164 9.52598 6.85563C9.52598 7.51961 9.25546 8.10771 8.79173 8.56302L9.33275 9.07524Z" fill="#4F4F4F"/>
<path d="M8.46304 6.83665C8.46304 6.05884 7.80609 5.4328 7.01387 5.4328C6.22166 5.4328 5.5647 6.05884 5.5647 6.83665C5.5647 7.48167 6.00911 8.01286 6.62742 8.18359V14.3681H5.64199V15.127H8.40508V14.3681H7.40032V8.18359C8.01863 8.01286 8.46304 7.4627 8.46304 6.83665ZM6.33759 6.83665C6.33759 6.4762 6.64675 6.19164 7.01387 6.19164C7.38099 6.19164 7.69015 6.4762 7.69015 6.83665C7.69015 7.1971 7.38099 7.48167 7.01387 7.48167C6.64675 7.48167 6.33759 7.17813 6.33759 6.83665Z" fill="#4F4F4F"/>
</svg>
